<?xml version="1.0" encoding="utf-8" standalone="no"?>
<!DOCTYPE svg PUBLIC "-//W3C//DTD SVG 1.1//EN"
  "http://www.w3.org/Graphics/SVG/1.1/DTD/svg11.dtd">
<svg xmlns:xlink="http://www.w3.org/1999/xlink" width="1576.7325pt" height="507.065074pt" viewBox="0 0 1576.7325 507.065074" xmlns="http://www.w3.org/2000/svg" version="1.1">
 <metadata>
  <rdf:RDF xmlns:dc="http://purl.org/dc/elements/1.1/" xmlns:cc="http://creativecommons.org/ns#" xmlns:rdf="http://www.w3.org/1999/02/22-rdf-syntax-ns#">
   <cc:Work>
    <dc:type rdf:resource="http://purl.org/dc/dcmitype/StillImage"/>
    <dc:date>2026-02-20T16:58:17.057618</dc:date>
    <dc:format>image/svg+xml</dc:format>
    <dc:creator>
     <cc:Agent>
      <dc:title>Matplotlib v3.10.8, https://matplotlib.org/</dc:title>
     </cc:Agent>
    </dc:creator>
   </cc:Work>
  </rdf:RDF>
 </metadata>
 <defs>
  <style type="text/css">*{stroke-linejoin: round; stroke-linecap: butt}</style>
 </defs>
 <g id="figure_1">
  <g id="patch_1">
   <path d="M 0 507.065074 
L 1576.7325 507.065074 
L 1576.7325 0 
L 0 0 
z
" style="fill: #ffffff"/>
  </g>
  <g id="axes_1">
   <g id="patch_2">
    <path d="M 47.6525 430.867719 
L 528.721511 430.867719 
L 528.721511 63.6 
L 47.6525 63.6 
z
" style="fill: #ffffff"/>
   </g>
   <g id="patch_3">
    <path d="M 69.519273 430.867719 
L 116.376644 430.867719 
L 116.376644 102.075666 
L 69.519273 102.075666 
z
" clip-path="url(#p9094a2d0f1)" style="fill: #6c757d; stroke: #ffffff; stroke-width: 0.5; stroke-linejoin: miter"/>
   </g>
   <g id="patch_4">
    <path d="M 147.614892 430.867719 
L 194.472263 430.867719 
L 194.472263 123.062393 
L 147.614892 123.062393 
z
" clip-path="url(#p9094a2d0f1)" style="fill: #c0392b; stroke: #ffffff; stroke-width: 0.5; stroke-linejoin: miter"/>
   </g>
   <g id="patch_5">
    <path d="M 225.710511 430.867719 
L 272.567882 430.867719 
L 272.567882 130.057968 
L 225.710511 130.057968 
z
" clip-path="url(#p9094a2d0f1)" style="fill: #2d8e4e; stroke: #ffffff; stroke-width: 0.5; stroke-linejoin: miter"/>
   </g>
   <g id="patch_6">
    <path d="M 303.806129 430.867719 
L 350.663501 430.867719 
L 350.663501 430.867719 
L 303.806129 430.867719 
z
" clip-path="url(#p9094a2d0f1)" style="fill: url(#h4d2f75fc67); stroke: #ffffff; stroke-width: 0.5; stroke-linejoin: miter"/>
   </g>
   <g id="patch_7">
    <path d="M 381.901748 430.867719 
L 428.759119 430.867719 
L 428.759119 430.867719 
L 381.901748 430.867719 
z
" clip-path="url(#p9094a2d0f1)" style="fill: url(#h495b6e2379); stroke: #ffffff; stroke-width: 0.5; stroke-linejoin: miter"/>
   </g>
   <g id="patch_8">
    <path d="M 459.997367 430.867719 
L 506.854738 430.867719 
L 506.854738 430.867719 
L 459.997367 430.867719 
z
" clip-path="url(#p9094a2d0f1)" style="fill: url(#h3181344b19); stroke: #ffffff; stroke-width: 0.5; stroke-linejoin: miter"/>
   </g>
   <g id="matplotlib.axis_1">
    <g id="xtick_1">
     <g id="line2d_1">
      <defs>
       <path id="mf4c32b5311" d="M 0 0 
L 0 3.5 
" style="stroke: #000000; stroke-width: 0.8"/>
      </defs>
      <g>
       <use xlink:href="#mf4c32b5311" x="92.947959" y="430.867719" style="stroke: #000000; stroke-width: 0.8"/>
      </g>
     </g>
     <g id="text_1">
      <!-- Reagan -->
      <g transform="translate(56.976553 469.823421) rotate(-45) scale(0.1 -0.1)">
       <defs>
        <path id="DejaVuSans-52" d="M 2841 2188 
Q 3044 2119 3236 1894 
Q 3428 1669 3622 1275 
L 4263 0 
L 3584 0 
L 2988 1197 
Q 2756 1666 2539 1819 
Q 2322 1972 1947 1972 
L 1259 1972 
L 1259 0 
L 628 0 
L 628 4666 
L 2053 4666 
Q 2853 4666 3247 4331 
Q 3641 3997 3641 3322 
Q 3641 2881 3436 2590 
Q 3231 2300 2841 2188 
z
M 1259 4147 
L 1259 2491 
L 2053 2491 
Q 2509 2491 2742 2702 
Q 2975 2913 2975 3322 
Q 2975 3731 2742 3939 
Q 2509 4147 2053 4147 
L 1259 4147 
z
" transform="scale(0.015625)"/>
        <path id="DejaVuSans-65" d="M 3597 1894 
L 3597 1613 
L 953 1613 
Q 991 1019 1311 708 
Q 1631 397 2203 397 
Q 2534 397 2845 478 
Q 3156 559 3463 722 
L 3463 178 
Q 3153 47 2828 -22 
Q 2503 -91 2169 -91 
Q 1331 -91 842 396 
Q 353 884 353 1716 
Q 353 2575 817 3079 
Q 1281 3584 2069 3584 
Q 2775 3584 3186 3129 
Q 3597 2675 3597 1894 
z
M 3022 2063 
Q 3016 2534 2758 2815 
Q 2500 3097 2075 3097 
Q 1594 3097 1305 2825 
Q 1016 2553 972 2059 
L 3022 2063 
z
" transform="scale(0.015625)"/>
        <path id="DejaVuSans-61" d="M 2194 1759 
Q 1497 1759 1228 1600 
Q 959 1441 959 1056 
Q 959 750 1161 570 
Q 1363 391 1709 391 
Q 2188 391 2477 730 
Q 2766 1069 2766 1631 
L 2766 1759 
L 2194 1759 
z
M 3341 1997 
L 3341 0 
L 2766 0 
L 2766 531 
Q 2569 213 2275 61 
Q 1981 -91 1556 -91 
Q 1019 -91 701 211 
Q 384 513 384 1019 
Q 384 1609 779 1909 
Q 1175 2209 1959 2209 
L 2766 2209 
L 2766 2266 
Q 2766 2663 2505 2880 
Q 2244 3097 1772 3097 
Q 1472 3097 1187 3025 
Q 903 2953 641 2809 
L 641 3341 
Q 956 3463 1253 3523 
Q 1550 3584 1831 3584 
Q 2591 3584 2966 3190 
Q 3341 2797 3341 1997 
z
" transform="scale(0.015625)"/>
        <path id="DejaVuSans-67" d="M 2906 1791 
Q 2906 2416 2648 2759 
Q 2391 3103 1925 3103 
Q 1463 3103 1205 2759 
Q 947 2416 947 1791 
Q 947 1169 1205 825 
Q 1463 481 1925 481 
Q 2391 481 2648 825 
Q 2906 1169 2906 1791 
z
M 3481 434 
Q 3481 -459 3084 -895 
Q 2688 -1331 1869 -1331 
Q 1566 -1331 1297 -1286 
Q 1028 -1241 775 -1147 
L 775 -588 
Q 1028 -725 1275 -790 
Q 1522 -856 1778 -856 
Q 2344 -856 2625 -561 
Q 2906 -266 2906 331 
L 2906 616 
Q 2728 306 2450 153 
Q 2172 0 1784 0 
Q 1141 0 747 490 
Q 353 981 353 1791 
Q 353 2603 747 3093 
Q 1141 3584 1784 3584 
Q 2172 3584 2450 3431 
Q 2728 3278 2906 2969 
L 2906 3500 
L 3481 3500 
L 3481 434 
z
" transform="scale(0.015625)"/>
        <path id="DejaVuSans-6e" d="M 3513 2113 
L 3513 0 
L 2938 0 
L 2938 2094 
Q 2938 2591 2744 2837 
Q 2550 3084 2163 3084 
Q 1697 3084 1428 2787 
Q 1159 2491 1159 1978 
L 1159 0 
L 581 0 
L 581 3500 
L 1159 3500 
L 1159 2956 
Q 1366 3272 1645 3428 
Q 1925 3584 2291 3584 
Q 2894 3584 3203 3211 
Q 3513 2838 3513 2113 
z
" transform="scale(0.015625)"/>
       </defs>
       <use xlink:href="#DejaVuSans-52"/>
       <use xlink:href="#DejaVuSans-65" transform="translate(64.982422 0)"/>
       <use xlink:href="#DejaVuSans-61" transform="translate(126.505859 0)"/>
       <use xlink:href="#DejaVuSans-67" transform="translate(187.785156 0)"/>
       <use xlink:href="#DejaVuSans-61" transform="translate(251.261719 0)"/>
       <use xlink:href="#DejaVuSans-6e" transform="translate(312.541016 0)"/>
      </g>
      <!-- Random 50% -->
      <g transform="translate(44.24156 498.394513) rotate(-45) scale(0.1 -0.1)">
       <defs>
        <path id="DejaVuSans-64" d="M 2906 2969 
L 2906 4863 
L 3481 4863 
L 3481 0 
L 2906 0 
L 2906 525 
Q 2725 213 2448 61 
Q 2172 -91 1784 -91 
Q 1150 -91 751 415 
Q 353 922 353 1747 
Q 353 2572 751 3078 
Q 1150 3584 1784 3584 
Q 2172 3584 2448 3432 
Q 2725 3281 2906 2969 
z
M 947 1747 
Q 947 1113 1208 752 
Q 1469 391 1925 391 
Q 2381 391 2643 752 
Q 2906 1113 2906 1747 
Q 2906 2381 2643 2742 
Q 2381 3103 1925 3103 
Q 1469 3103 1208 2742 
Q 947 2381 947 1747 
z
" transform="scale(0.015625)"/>
        <path id="DejaVuSans-6f" d="M 1959 3097 
Q 1497 3097 1228 2736 
Q 959 2375 959 1747 
Q 959 1119 1226 758 
Q 1494 397 1959 397 
Q 2419 397 2687 759 
Q 2956 1122 2956 1747 
Q 2956 2369 2687 2733 
Q 2419 3097 1959 3097 
z
M 1959 3584 
Q 2709 3584 3137 3096 
Q 3566 2609 3566 1747 
Q 3566 888 3137 398 
Q 2709 -91 1959 -91 
Q 1206 -91 779 398 
Q 353 888 353 1747 
Q 353 2609 779 3096 
Q 1206 3584 1959 3584 
z
" transform="scale(0.015625)"/>
        <path id="DejaVuSans-6d" d="M 3328 2828 
Q 3544 3216 3844 3400 
Q 4144 3584 4550 3584 
Q 5097 3584 5394 3201 
Q 5691 2819 5691 2113 
L 5691 0 
L 5113 0 
L 5113 2094 
Q 5113 2597 4934 2840 
Q 4756 3084 4391 3084 
Q 3944 3084 3684 2787 
Q 3425 2491 3425 1978 
L 3425 0 
L 2847 0 
L 2847 2094 
Q 2847 2600 2669 2842 
Q 2491 3084 2119 3084 
Q 1678 3084 1418 2786 
Q 1159 2488 1159 1978 
L 1159 0 
L 581 0 
L 581 3500 
L 1159 3500 
L 1159 2956 
Q 1356 3278 1631 3431 
Q 1906 3584 2284 3584 
Q 2666 3584 2933 3390 
Q 3200 3197 3328 2828 
z
" transform="scale(0.015625)"/>
        <path id="DejaVuSans-20" transform="scale(0.015625)"/>
        <path id="DejaVuSans-35" d="M 691 4666 
L 3169 4666 
L 3169 4134 
L 1269 4134 
L 1269 2991 
Q 1406 3038 1543 3061 
Q 1681 3084 1819 3084 
Q 2600 3084 3056 2656 
Q 3513 2228 3513 1497 
Q 3513 744 3044 326 
Q 2575 -91 1722 -91 
Q 1428 -91 1123 -41 
Q 819 9 494 109 
L 494 744 
Q 775 591 1075 516 
Q 1375 441 1709 441 
Q 2250 441 2565 725 
Q 2881 1009 2881 1497 
Q 2881 1984 2565 2268 
Q 2250 2553 1709 2553 
Q 1456 2553 1204 2497 
Q 953 2441 691 2322 
L 691 4666 
z
" transform="scale(0.015625)"/>
        <path id="DejaVuSans-30" d="M 2034 4250 
Q 1547 4250 1301 3770 
Q 1056 3291 1056 2328 
Q 1056 1369 1301 889 
Q 1547 409 2034 409 
Q 2525 409 2770 889 
Q 3016 1369 3016 2328 
Q 3016 3291 2770 3770 
Q 2525 4250 2034 4250 
z
M 2034 4750 
Q 2819 4750 3233 4129 
Q 3647 3509 3647 2328 
Q 3647 1150 3233 529 
Q 2819 -91 2034 -91 
Q 1250 -91 836 529 
Q 422 1150 422 2328 
Q 422 3509 836 4129 
Q 1250 4750 2034 4750 
z
" transform="scale(0.015625)"/>
        <path id="DejaVuSans-25" d="M 4653 2053 
Q 4381 2053 4226 1822 
Q 4072 1591 4072 1178 
Q 4072 772 4226 539 
Q 4381 306 4653 306 
Q 4919 306 5073 539 
Q 5228 772 5228 1178 
Q 5228 1588 5073 1820 
Q 4919 2053 4653 2053 
z
M 4653 2450 
Q 5147 2450 5437 2106 
Q 5728 1763 5728 1178 
Q 5728 594 5436 251 
Q 5144 -91 4653 -91 
Q 4153 -91 3862 251 
Q 3572 594 3572 1178 
Q 3572 1766 3864 2108 
Q 4156 2450 4653 2450 
z
M 1428 4353 
Q 1159 4353 1004 4120 
Q 850 3888 850 3481 
Q 850 3069 1003 2837 
Q 1156 2606 1428 2606 
Q 1700 2606 1854 2837 
Q 2009 3069 2009 3481 
Q 2009 3884 1853 4118 
Q 1697 4353 1428 4353 
z
M 4250 4750 
L 4750 4750 
L 1831 -91 
L 1331 -91 
L 4250 4750 
z
M 1428 4750 
Q 1922 4750 2215 4408 
Q 2509 4066 2509 3481 
Q 2509 2891 2217 2550 
Q 1925 2209 1428 2209 
Q 931 2209 642 2551 
Q 353 2894 353 3481 
Q 353 4063 643 4406 
Q 934 4750 1428 4750 
z
" transform="scale(0.015625)"/>
       </defs>
       <use xlink:href="#DejaVuSans-52"/>
       <use xlink:href="#DejaVuSans-61" transform="translate(67.232422 0)"/>
       <use xlink:href="#DejaVuSans-6e" transform="translate(128.511719 0)"/>
       <use xlink:href="#DejaVuSans-64" transform="translate(191.890625 0)"/>
       <use xlink:href="#DejaVuSans-6f" transform="translate(255.367188 0)"/>
       <use xlink:href="#DejaVuSans-6d" transform="translate(316.548828 0)"/>
       <use xlink:href="#DejaVuSans-20" transform="translate(413.960938 0)"/>
       <use xlink:href="#DejaVuSans-35" transform="translate(445.748047 0)"/>
       <use xlink:href="#DejaVuSans-30" transform="translate(509.371094 0)"/>
       <use xlink:href="#DejaVuSans-25" transform="translate(572.994141 0)"/>
      </g>
     </g>
    </g>
    <g id="xtick_2">
     <g id="line2d_2">
      <g>
       <use xlink:href="#mf4c32b5311" x="171.043578" y="430.867719" style="stroke: #000000; stroke-width: 0.8"/>
      </g>
     </g>
     <g id="text_2">
      <!-- Reagan -->
      <g transform="translate(135.072172 469.823421) rotate(-45) scale(0.1 -0.1)">
       <use xlink:href="#DejaVuSans-52"/>
       <use xlink:href="#DejaVuSans-65" transform="translate(64.982422 0)"/>
       <use xlink:href="#DejaVuSans-61" transform="translate(126.505859 0)"/>
       <use xlink:href="#DejaVuSans-67" transform="translate(187.785156 0)"/>
       <use xlink:href="#DejaVuSans-61" transform="translate(251.261719 0)"/>
       <use xlink:href="#DejaVuSans-6e" transform="translate(312.541016 0)"/>
      </g>
      <!-- Top 50% -->
      <g transform="translate(139.676763 481.054928) rotate(-45) scale(0.1 -0.1)">
       <defs>
        <path id="DejaVuSans-54" d="M -19 4666 
L 3928 4666 
L 3928 4134 
L 2272 4134 
L 2272 0 
L 1638 0 
L 1638 4134 
L -19 4134 
L -19 4666 
z
" transform="scale(0.015625)"/>
        <path id="DejaVuSans-70" d="M 1159 525 
L 1159 -1331 
L 581 -1331 
L 581 3500 
L 1159 3500 
L 1159 2969 
Q 1341 3281 1617 3432 
Q 1894 3584 2278 3584 
Q 2916 3584 3314 3078 
Q 3713 2572 3713 1747 
Q 3713 922 3314 415 
Q 2916 -91 2278 -91 
Q 1894 -91 1617 61 
Q 1341 213 1159 525 
z
M 3116 1747 
Q 3116 2381 2855 2742 
Q 2594 3103 2138 3103 
Q 1681 3103 1420 2742 
Q 1159 2381 1159 1747 
Q 1159 1113 1420 752 
Q 1681 391 2138 391 
Q 2594 391 2855 752 
Q 3116 1113 3116 1747 
z
" transform="scale(0.015625)"/>
       </defs>
       <use xlink:href="#DejaVuSans-54"/>
       <use xlink:href="#DejaVuSans-6f" transform="translate(44.083984 0)"/>
       <use xlink:href="#DejaVuSans-70" transform="translate(105.265625 0)"/>
       <use xlink:href="#DejaVuSans-20" transform="translate(168.742188 0)"/>
       <use xlink:href="#DejaVuSans-35" transform="translate(200.529297 0)"/>
       <use xlink:href="#DejaVuSans-30" transform="translate(264.152344 0)"/>
       <use xlink:href="#DejaVuSans-25" transform="translate(327.775391 0)"/>
      </g>
     </g>
    </g>
    <g id="xtick_3">
     <g id="line2d_3">
      <g>
       <use xlink:href="#mf4c32b5311" x="249.139196" y="430.867719" style="stroke: #000000; stroke-width: 0.8"/>
      </g>
     </g>
     <g id="text_3">
      <!-- Reagan -->
      <g transform="translate(213.167791 469.823421) rotate(-45) scale(0.1 -0.1)">
       <use xlink:href="#DejaVuSans-52"/>
       <use xlink:href="#DejaVuSans-65" transform="translate(64.982422 0)"/>
       <use xlink:href="#DejaVuSans-61" transform="translate(126.505859 0)"/>
       <use xlink:href="#DejaVuSans-67" transform="translate(187.785156 0)"/>
       <use xlink:href="#DejaVuSans-61" transform="translate(251.261719 0)"/>
       <use xlink:href="#DejaVuSans-6e" transform="translate(312.541016 0)"/>
      </g>
      <!-- Bottom 50% -->
      <g transform="translate(203.768353 495.058957) rotate(-45) scale(0.1 -0.1)">
       <defs>
        <path id="DejaVuSans-42" d="M 1259 2228 
L 1259 519 
L 2272 519 
Q 2781 519 3026 730 
Q 3272 941 3272 1375 
Q 3272 1813 3026 2020 
Q 2781 2228 2272 2228 
L 1259 2228 
z
M 1259 4147 
L 1259 2741 
L 2194 2741 
Q 2656 2741 2882 2914 
Q 3109 3088 3109 3444 
Q 3109 3797 2882 3972 
Q 2656 4147 2194 4147 
L 1259 4147 
z
M 628 4666 
L 2241 4666 
Q 2963 4666 3353 4366 
Q 3744 4066 3744 3513 
Q 3744 3084 3544 2831 
Q 3344 2578 2956 2516 
Q 3422 2416 3680 2098 
Q 3938 1781 3938 1306 
Q 3938 681 3513 340 
Q 3088 0 2303 0 
L 628 0 
L 628 4666 
z
" transform="scale(0.015625)"/>
        <path id="DejaVuSans-74" d="M 1172 4494 
L 1172 3500 
L 2356 3500 
L 2356 3053 
L 1172 3053 
L 1172 1153 
Q 1172 725 1289 603 
Q 1406 481 1766 481 
L 2356 481 
L 2356 0 
L 1766 0 
Q 1100 0 847 248 
Q 594 497 594 1153 
L 594 3053 
L 172 3053 
L 172 3500 
L 594 3500 
L 594 4494 
L 1172 4494 
z
" transform="scale(0.015625)"/>
       </defs>
       <use xlink:href="#DejaVuSans-42"/>
       <use xlink:href="#DejaVuSans-6f" transform="translate(68.603516 0)"/>
       <use xlink:href="#DejaVuSans-74" transform="translate(129.785156 0)"/>
       <use xlink:href="#DejaVuSans-74" transform="translate(168.994141 0)"/>
       <use xlink:href="#DejaVuSans-6f" transform="translate(208.203125 0)"/>
       <use xlink:href="#DejaVuSans-6d" transform="translate(269.384766 0)"/>
       <use xlink:href="#DejaVuSans-20" transform="translate(366.796875 0)"/>
       <use xlink:href="#DejaVuSans-35" transform="translate(398.583984 0)"/>
       <use xlink:href="#DejaVuSans-30" transform="translate(462.207031 0)"/>
       <use xlink:href="#DejaVuSans-25" transform="translate(525.830078 0)"/>
      </g>
     </g>
    </g>
    <g id="xtick_4">
     <g id="line2d_4">
      <g>
       <use xlink:href="#mf4c32b5311" x="327.234815" y="430.867719" style="stroke: #000000; stroke-width: 0.8"/>
      </g>
     </g>
     <g id="text_4">
      <!-- Clean -->
      <g style="fill: #8b4513" transform="translate(297.778735 463.308095) rotate(-45) scale(0.1 -0.1)">
       <defs>
        <path id="DejaVuSans-43" d="M 4122 4306 
L 4122 3641 
Q 3803 3938 3442 4084 
Q 3081 4231 2675 4231 
Q 1875 4231 1450 3742 
Q 1025 3253 1025 2328 
Q 1025 1406 1450 917 
Q 1875 428 2675 428 
Q 3081 428 3442 575 
Q 3803 722 4122 1019 
L 4122 359 
Q 3791 134 3420 21 
Q 3050 -91 2638 -91 
Q 1578 -91 968 557 
Q 359 1206 359 2328 
Q 359 3453 968 4101 
Q 1578 4750 2638 4750 
Q 3056 4750 3426 4639 
Q 3797 4528 4122 4306 
z
" transform="scale(0.015625)"/>
        <path id="DejaVuSans-6c" d="M 603 4863 
L 1178 4863 
L 1178 0 
L 603 0 
L 603 4863 
z
" transform="scale(0.015625)"/>
       </defs>
       <use xlink:href="#DejaVuSans-43"/>
       <use xlink:href="#DejaVuSans-6c" transform="translate(69.824219 0)"/>
       <use xlink:href="#DejaVuSans-65" transform="translate(97.607422 0)"/>
       <use xlink:href="#DejaVuSans-61" transform="translate(159.130859 0)"/>
       <use xlink:href="#DejaVuSans-6e" transform="translate(220.410156 0)"/>
      </g>
      <!-- Random 50% -->
      <g style="fill: #8b4513" transform="translate(278.528416 498.394513) rotate(-45) scale(0.1 -0.1)">
       <use xlink:href="#DejaVuSans-52"/>
       <use xlink:href="#DejaVuSans-61" transform="translate(67.232422 0)"/>
       <use xlink:href="#DejaVuSans-6e" transform="translate(128.511719 0)"/>
       <use xlink:href="#DejaVuSans-64" transform="translate(191.890625 0)"/>
       <use xlink:href="#DejaVuSans-6f" transform="translate(255.367188 0)"/>
       <use xlink:href="#DejaVuSans-6d" transform="translate(316.548828 0)"/>
       <use xlink:href="#DejaVuSans-20" transform="translate(413.960938 0)"/>
       <use xlink:href="#DejaVuSans-35" transform="translate(445.748047 0)"/>
       <use xlink:href="#DejaVuSans-30" transform="translate(509.371094 0)"/>
       <use xlink:href="#DejaVuSans-25" transform="translate(572.994141 0)"/>
      </g>
     </g>
    </g>
    <g id="xtick_5">
     <g id="line2d_5">
      <g>
       <use xlink:href="#mf4c32b5311" x="405.330434" y="430.867719" style="stroke: #000000; stroke-width: 0.8"/>
      </g>
     </g>
     <g id="text_5">
      <!-- Clean -->
      <g style="fill: #8b4513" transform="translate(375.874354 463.308095) rotate(-45) scale(0.1 -0.1)">
       <use xlink:href="#DejaVuSans-43"/>
       <use xlink:href="#DejaVuSans-6c" transform="translate(69.824219 0)"/>
       <use xlink:href="#DejaVuSans-65" transform="translate(97.607422 0)"/>
       <use xlink:href="#DejaVuSans-61" transform="translate(159.130859 0)"/>
       <use xlink:href="#DejaVuSans-6e" transform="translate(220.410156 0)"/>
      </g>
      <!-- Top 50% -->
      <g style="fill: #8b4513" transform="translate(373.963619 481.054928) rotate(-45) scale(0.1 -0.1)">
       <use xlink:href="#DejaVuSans-54"/>
       <use xlink:href="#DejaVuSans-6f" transform="translate(44.083984 0)"/>
       <use xlink:href="#DejaVuSans-70" transform="translate(105.265625 0)"/>
       <use xlink:href="#DejaVuSans-20" transform="translate(168.742188 0)"/>
       <use xlink:href="#DejaVuSans-35" transform="translate(200.529297 0)"/>
       <use xlink:href="#DejaVuSans-30" transform="translate(264.152344 0)"/>
       <use xlink:href="#DejaVuSans-25" transform="translate(327.775391 0)"/>
      </g>
     </g>
    </g>
    <g id="xtick_6">
     <g id="line2d_6">
      <g>
       <use xlink:href="#mf4c32b5311" x="483.426053" y="430.867719" style="stroke: #000000; stroke-width: 0.8"/>
      </g>
     </g>
     <g id="text_6">
      <!-- Clean -->
      <g style="fill: #8b4513" transform="translate(453.969973 463.308095) rotate(-45) scale(0.1 -0.1)">
       <use xlink:href="#DejaVuSans-43"/>
       <use xlink:href="#DejaVuSans-6c" transform="translate(69.824219 0)"/>
       <use xlink:href="#DejaVuSans-65" transform="translate(97.607422 0)"/>
       <use xlink:href="#DejaVuSans-61" transform="translate(159.130859 0)"/>
       <use xlink:href="#DejaVuSans-6e" transform="translate(220.410156 0)"/>
      </g>
      <!-- Bottom 50% -->
      <g style="fill: #8b4513" transform="translate(438.055209 495.058957) rotate(-45) scale(0.1 -0.1)">
       <use xlink:href="#DejaVuSans-42"/>
       <use xlink:href="#DejaVuSans-6f" transform="translate(68.603516 0)"/>
       <use xlink:href="#DejaVuSans-74" transform="translate(129.785156 0)"/>
       <use xlink:href="#DejaVuSans-74" transform="translate(168.994141 0)"/>
       <use xlink:href="#DejaVuSans-6f" transform="translate(208.203125 0)"/>
       <use xlink:href="#DejaVuSans-6d" transform="translate(269.384766 0)"/>
       <use xlink:href="#DejaVuSans-20" transform="translate(366.796875 0)"/>
       <use xlink:href="#DejaVuSans-35" transform="translate(398.583984 0)"/>
       <use xlink:href="#DejaVuSans-30" transform="translate(462.207031 0)"/>
       <use xlink:href="#DejaVuSans-25" transform="translate(525.830078 0)"/>
      </g>
     </g>
    </g>
   </g>
   <g id="matplotlib.axis_2">
    <g id="ytick_1">
     <g id="line2d_7">
      <defs>
       <path id="m50befcb63b" d="M 0 0 
L -3.5 0 
" style="stroke: #000000; stroke-width: 0.8"/>
      </defs>
      <g>
       <use xlink:href="#m50befcb63b" x="47.6525" y="430.867719" style="stroke: #000000; stroke-width: 0.8"/>
      </g>
     </g>
     <g id="text_7">
      <!-- 0.0 -->
      <g transform="translate(24.749375 434.666938) scale(0.1 -0.1)">
       <defs>
        <path id="DejaVuSans-2e" d="M 684 794 
L 1344 794 
L 1344 0 
L 684 0 
L 684 794 
z
" transform="scale(0.015625)"/>
       </defs>
       <use xlink:href="#DejaVuSans-30"/>
       <use xlink:href="#DejaVuSans-2e" transform="translate(63.623047 0)"/>
       <use xlink:href="#DejaVuSans-30" transform="translate(95.410156 0)"/>
      </g>
     </g>
    </g>
    <g id="ytick_2">
     <g id="line2d_8">
      <g>
       <use xlink:href="#m50befcb63b" x="47.6525" y="360.911963" style="stroke: #000000; stroke-width: 0.8"/>
      </g>
     </g>
     <g id="text_8">
      <!-- 0.2 -->
      <g transform="translate(24.749375 364.711182) scale(0.1 -0.1)">
       <defs>
        <path id="DejaVuSans-32" d="M 1228 531 
L 3431 531 
L 3431 0 
L 469 0 
L 469 531 
Q 828 903 1448 1529 
Q 2069 2156 2228 2338 
Q 2531 2678 2651 2914 
Q 2772 3150 2772 3378 
Q 2772 3750 2511 3984 
Q 2250 4219 1831 4219 
Q 1534 4219 1204 4116 
Q 875 4013 500 3803 
L 500 4441 
Q 881 4594 1212 4672 
Q 1544 4750 1819 4750 
Q 2544 4750 2975 4387 
Q 3406 4025 3406 3419 
Q 3406 3131 3298 2873 
Q 3191 2616 2906 2266 
Q 2828 2175 2409 1742 
Q 1991 1309 1228 531 
z
" transform="scale(0.015625)"/>
       </defs>
       <use xlink:href="#DejaVuSans-30"/>
       <use xlink:href="#DejaVuSans-2e" transform="translate(63.623047 0)"/>
       <use xlink:href="#DejaVuSans-32" transform="translate(95.410156 0)"/>
      </g>
     </g>
    </g>
    <g id="ytick_3">
     <g id="line2d_9">
      <g>
       <use xlink:href="#m50befcb63b" x="47.6525" y="290.956207" style="stroke: #000000; stroke-width: 0.8"/>
      </g>
     </g>
     <g id="text_9">
      <!-- 0.4 -->
      <g transform="translate(24.749375 294.755426) scale(0.1 -0.1)">
       <defs>
        <path id="DejaVuSans-34" d="M 2419 4116 
L 825 1625 
L 2419 1625 
L 2419 4116 
z
M 2253 4666 
L 3047 4666 
L 3047 1625 
L 3713 1625 
L 3713 1100 
L 3047 1100 
L 3047 0 
L 2419 0 
L 2419 1100 
L 313 1100 
L 313 1709 
L 2253 4666 
z
" transform="scale(0.015625)"/>
       </defs>
       <use xlink:href="#DejaVuSans-30"/>
       <use xlink:href="#DejaVuSans-2e" transform="translate(63.623047 0)"/>
       <use xlink:href="#DejaVuSans-34" transform="translate(95.410156 0)"/>
      </g>
     </g>
    </g>
    <g id="ytick_4">
     <g id="line2d_10">
      <g>
       <use xlink:href="#m50befcb63b" x="47.6525" y="221.000451" style="stroke: #000000; stroke-width: 0.8"/>
      </g>
     </g>
     <g id="text_10">
      <!-- 0.6 -->
      <g transform="translate(24.749375 224.79967) scale(0.1 -0.1)">
       <defs>
        <path id="DejaVuSans-36" d="M 2113 2584 
Q 1688 2584 1439 2293 
Q 1191 2003 1191 1497 
Q 1191 994 1439 701 
Q 1688 409 2113 409 
Q 2538 409 2786 701 
Q 3034 994 3034 1497 
Q 3034 2003 2786 2293 
Q 2538 2584 2113 2584 
z
M 3366 4563 
L 3366 3988 
Q 3128 4100 2886 4159 
Q 2644 4219 2406 4219 
Q 1781 4219 1451 3797 
Q 1122 3375 1075 2522 
Q 1259 2794 1537 2939 
Q 1816 3084 2150 3084 
Q 2853 3084 3261 2657 
Q 3669 2231 3669 1497 
Q 3669 778 3244 343 
Q 2819 -91 2113 -91 
Q 1303 -91 875 529 
Q 447 1150 447 2328 
Q 447 3434 972 4092 
Q 1497 4750 2381 4750 
Q 2619 4750 2861 4703 
Q 3103 4656 3366 4563 
z
" transform="scale(0.015625)"/>
       </defs>
       <use xlink:href="#DejaVuSans-30"/>
       <use xlink:href="#DejaVuSans-2e" transform="translate(63.623047 0)"/>
       <use xlink:href="#DejaVuSans-36" transform="translate(95.410156 0)"/>
      </g>
     </g>
    </g>
    <g id="ytick_5">
     <g id="line2d_11">
      <g>
       <use xlink:href="#m50befcb63b" x="47.6525" y="151.044695" style="stroke: #000000; stroke-width: 0.8"/>
      </g>
     </g>
     <g id="text_11">
      <!-- 0.8 -->
      <g transform="translate(24.749375 154.843914) scale(0.1 -0.1)">
       <defs>
        <path id="DejaVuSans-38" d="M 2034 2216 
Q 1584 2216 1326 1975 
Q 1069 1734 1069 1313 
Q 1069 891 1326 650 
Q 1584 409 2034 409 
Q 2484 409 2743 651 
Q 3003 894 3003 1313 
Q 3003 1734 2745 1975 
Q 2488 2216 2034 2216 
z
M 1403 2484 
Q 997 2584 770 2862 
Q 544 3141 544 3541 
Q 544 4100 942 4425 
Q 1341 4750 2034 4750 
Q 2731 4750 3128 4425 
Q 3525 4100 3525 3541 
Q 3525 3141 3298 2862 
Q 3072 2584 2669 2484 
Q 3125 2378 3379 2068 
Q 3634 1759 3634 1313 
Q 3634 634 3220 271 
Q 2806 -91 2034 -91 
Q 1263 -91 848 271 
Q 434 634 434 1313 
Q 434 1759 690 2068 
Q 947 2378 1403 2484 
z
M 1172 3481 
Q 1172 3119 1398 2916 
Q 1625 2713 2034 2713 
Q 2441 2713 2670 2916 
Q 2900 3119 2900 3481 
Q 2900 3844 2670 4047 
Q 2441 4250 2034 4250 
Q 1625 4250 1398 4047 
Q 1172 3844 1172 3481 
z
" transform="scale(0.015625)"/>
       </defs>
       <use xlink:href="#DejaVuSans-30"/>
       <use xlink:href="#DejaVuSans-2e" transform="translate(63.623047 0)"/>
       <use xlink:href="#DejaVuSans-38" transform="translate(95.410156 0)"/>
      </g>
     </g>
    </g>
    <g id="ytick_6">
     <g id="line2d_12">
      <g>
       <use xlink:href="#m50befcb63b" x="47.6525" y="81.088939" style="stroke: #000000; stroke-width: 0.8"/>
      </g>
     </g>
     <g id="text_12">
      <!-- 1.0 -->
      <g transform="translate(24.749375 84.888158) scale(0.1 -0.1)">
       <defs>
        <path id="DejaVuSans-31" d="M 794 531 
L 1825 531 
L 1825 4091 
L 703 3866 
L 703 4441 
L 1819 4666 
L 2450 4666 
L 2450 531 
L 3481 531 
L 3481 0 
L 794 0 
L 794 531 
z
" transform="scale(0.015625)"/>
       </defs>
       <use xlink:href="#DejaVuSans-31"/>
       <use xlink:href="#DejaVuSans-2e" transform="translate(63.623047 0)"/>
       <use xlink:href="#DejaVuSans-30" transform="translate(95.410156 0)"/>
      </g>
     </g>
    </g>
    <g id="text_13">
     <!-- Neighboring ASR -->
     <g transform="translate(17.837813 306.353234) rotate(-90) scale(0.14 -0.14)">
      <defs>
       <path id="DejaVuSans-4e" d="M 628 4666 
L 1478 4666 
L 3547 763 
L 3547 4666 
L 4159 4666 
L 4159 0 
L 3309 0 
L 1241 3903 
L 1241 0 
L 628 0 
L 628 4666 
z
" transform="scale(0.015625)"/>
       <path id="DejaVuSans-69" d="M 603 3500 
L 1178 3500 
L 1178 0 
L 603 0 
L 603 3500 
z
M 603 4863 
L 1178 4863 
L 1178 4134 
L 603 4134 
L 603 4863 
z
" transform="scale(0.015625)"/>
       <path id="DejaVuSans-68" d="M 3513 2113 
L 3513 0 
L 2938 0 
L 2938 2094 
Q 2938 2591 2744 2837 
Q 2550 3084 2163 3084 
Q 1697 3084 1428 2787 
Q 1159 2491 1159 1978 
L 1159 0 
L 581 0 
L 581 4863 
L 1159 4863 
L 1159 2956 
Q 1366 3272 1645 3428 
Q 1925 3584 2291 3584 
Q 2894 3584 3203 3211 
Q 3513 2838 3513 2113 
z
" transform="scale(0.015625)"/>
       <path id="DejaVuSans-62" d="M 3116 1747 
Q 3116 2381 2855 2742 
Q 2594 3103 2138 3103 
Q 1681 3103 1420 2742 
Q 1159 2381 1159 1747 
Q 1159 1113 1420 752 
Q 1681 391 2138 391 
Q 2594 391 2855 752 
Q 3116 1113 3116 1747 
z
M 1159 2969 
Q 1341 3281 1617 3432 
Q 1894 3584 2278 3584 
Q 2916 3584 3314 3078 
Q 3713 2572 3713 1747 
Q 3713 922 3314 415 
Q 2916 -91 2278 -91 
Q 1894 -91 1617 61 
Q 1341 213 1159 525 
L 1159 0 
L 581 0 
L 581 4863 
L 1159 4863 
L 1159 2969 
z
" transform="scale(0.015625)"/>
       <path id="DejaVuSans-72" d="M 2631 2963 
Q 2534 3019 2420 3045 
Q 2306 3072 2169 3072 
Q 1681 3072 1420 2755 
Q 1159 2438 1159 1844 
L 1159 0 
L 581 0 
L 581 3500 
L 1159 3500 
L 1159 2956 
Q 1341 3275 1631 3429 
Q 1922 3584 2338 3584 
Q 2397 3584 2469 3576 
Q 2541 3569 2628 3553 
L 2631 2963 
z
" transform="scale(0.015625)"/>
       <path id="DejaVuSans-41" d="M 2188 4044 
L 1331 1722 
L 3047 1722 
L 2188 4044 
z
M 1831 4666 
L 2547 4666 
L 4325 0 
L 3669 0 
L 3244 1197 
L 1141 1197 
L 716 0 
L 50 0 
L 1831 4666 
z
" transform="scale(0.015625)"/>
       <path id="DejaVuSans-53" d="M 3425 4513 
L 3425 3897 
Q 3066 4069 2747 4153 
Q 2428 4238 2131 4238 
Q 1616 4238 1336 4038 
Q 1056 3838 1056 3469 
Q 1056 3159 1242 3001 
Q 1428 2844 1947 2747 
L 2328 2669 
Q 3034 2534 3370 2195 
Q 3706 1856 3706 1288 
Q 3706 609 3251 259 
Q 2797 -91 1919 -91 
Q 1588 -91 1214 -16 
Q 841 59 441 206 
L 441 856 
Q 825 641 1194 531 
Q 1563 422 1919 422 
Q 2459 422 2753 634 
Q 3047 847 3047 1241 
Q 3047 1584 2836 1778 
Q 2625 1972 2144 2069 
L 1759 2144 
Q 1053 2284 737 2584 
Q 422 2884 422 3419 
Q 422 4038 858 4394 
Q 1294 4750 2059 4750 
Q 2388 4750 2728 4690 
Q 3069 4631 3425 4513 
z
" transform="scale(0.015625)"/>
      </defs>
      <use xlink:href="#DejaVuSans-4e"/>
      <use xlink:href="#DejaVuSans-65" transform="translate(74.804688 0)"/>
      <use xlink:href="#DejaVuSans-69" transform="translate(136.328125 0)"/>
      <use xlink:href="#DejaVuSans-67" transform="translate(164.111328 0)"/>
      <use xlink:href="#DejaVuSans-68" transform="translate(227.587891 0)"/>
      <use xlink:href="#DejaVuSans-62" transform="translate(290.966797 0)"/>
      <use xlink:href="#DejaVuSans-6f" transform="translate(354.443359 0)"/>
      <use xlink:href="#DejaVuSans-72" transform="translate(415.625 0)"/>
      <use xlink:href="#DejaVuSans-69" transform="translate(456.738281 0)"/>
      <use xlink:href="#DejaVuSans-6e" transform="translate(484.521484 0)"/>
      <use xlink:href="#DejaVuSans-67" transform="translate(547.900391 0)"/>
      <use xlink:href="#DejaVuSans-20" transform="translate(611.376953 0)"/>
      <use xlink:href="#DejaVuSans-41" transform="translate(643.164062 0)"/>
      <use xlink:href="#DejaVuSans-53" transform="translate(711.572266 0)"/>
      <use xlink:href="#DejaVuSans-52" transform="translate(775.048828 0)"/>
     </g>
    </g>
   </g>
   <g id="line2d_13">
    <path d="M 47.6525 430.867719 
L 528.721511 430.867719 
" clip-path="url(#p9094a2d0f1)" style="fill: none; stroke: #000000; stroke-width: 0.5; stroke-linecap: square"/>
   </g>
   <g id="line2d_14">
    <path d="M 47.6525 102.075666 
L 528.721511 102.075666 
" clip-path="url(#p9094a2d0f1)" style="fill: none; stroke-dasharray: 1,1.65; stroke-dashoffset: 0; stroke: #6c757d; stroke-opacity: 0.7"/>
   </g>
   <g id="line2d_15">
    <path d="M 288.187006 430.867719 
L 288.187006 63.6 
" clip-path="url(#p9094a2d0f1)" style="fill: none; stroke-dasharray: 3.7,1.6; stroke-dashoffset: 0; stroke: #dddddd"/>
   </g>
   <g id="patch_9">
    <path d="M 47.6525 430.867719 
L 47.6525 63.6 
" style="fill: none; stroke: #000000; stroke-width: 0.8; stroke-linejoin: miter; stroke-linecap: square"/>
   </g>
   <g id="patch_10">
    <path d="M 528.721511 430.867719 
L 528.721511 63.6 
" style="fill: none; stroke: #000000; stroke-width: 0.8; stroke-linejoin: miter; stroke-linecap: square"/>
   </g>
   <g id="patch_11">
    <path d="M 47.6525 430.867719 
L 528.721511 430.867719 
" style="fill: none; stroke: #000000; stroke-width: 0.8; stroke-linejoin: miter; stroke-linecap: square"/>
   </g>
   <g id="patch_12">
    <path d="M 47.6525 63.6 
L 528.721511 63.6 
" style="fill: none; stroke: #000000; stroke-width: 0.8; stroke-linejoin: miter; stroke-linecap: square"/>
   </g>
   <g id="text_14">
    <!-- 0.94 -->
    <g transform="translate(84.041709 96.914128) scale(0.08 -0.08)">
     <defs>
      <path id="DejaVuSans-39" d="M 703 97 
L 703 672 
Q 941 559 1184 500 
Q 1428 441 1663 441 
Q 2288 441 2617 861 
Q 2947 1281 2994 2138 
Q 2813 1869 2534 1725 
Q 2256 1581 1919 1581 
Q 1219 1581 811 2004 
Q 403 2428 403 3163 
Q 403 3881 828 4315 
Q 1253 4750 1959 4750 
Q 2769 4750 3195 4129 
Q 3622 3509 3622 2328 
Q 3622 1225 3098 567 
Q 2575 -91 1691 -91 
Q 1453 -91 1209 -44 
Q 966 3 703 97 
z
M 1959 2075 
Q 2384 2075 2632 2365 
Q 2881 2656 2881 3163 
Q 2881 3666 2632 3958 
Q 2384 4250 1959 4250 
Q 1534 4250 1286 3958 
Q 1038 3666 1038 3163 
Q 1038 2656 1286 2365 
Q 1534 2075 1959 2075 
z
" transform="scale(0.015625)"/>
     </defs>
     <use xlink:href="#DejaVuSans-30"/>
     <use xlink:href="#DejaVuSans-2e" transform="translate(63.623047 0)"/>
     <use xlink:href="#DejaVuSans-39" transform="translate(95.410156 0)"/>
     <use xlink:href="#DejaVuSans-34" transform="translate(159.033203 0)"/>
    </g>
   </g>
   <g id="text_15">
    <!-- 0.88 -->
    <g transform="translate(162.137328 117.900855) scale(0.08 -0.08)">
     <use xlink:href="#DejaVuSans-30"/>
     <use xlink:href="#DejaVuSans-2e" transform="translate(63.623047 0)"/>
     <use xlink:href="#DejaVuSans-38" transform="translate(95.410156 0)"/>
     <use xlink:href="#DejaVuSans-38" transform="translate(159.033203 0)"/>
    </g>
   </g>
   <g id="text_16">
    <!-- 0.86 -->
    <g transform="translate(240.232946 124.89643) scale(0.08 -0.08)">
     <use xlink:href="#DejaVuSans-30"/>
     <use xlink:href="#DejaVuSans-2e" transform="translate(63.623047 0)"/>
     <use xlink:href="#DejaVuSans-38" transform="translate(95.410156 0)"/>
     <use xlink:href="#DejaVuSans-36" transform="translate(159.033203 0)"/>
    </g>
   </g>
   <g id="text_17">
    <!-- 0.00 -->
    <g transform="translate(318.328565 425.706181) scale(0.08 -0.08)">
     <use xlink:href="#DejaVuSans-30"/>
     <use xlink:href="#DejaVuSans-2e" transform="translate(63.623047 0)"/>
     <use xlink:href="#DejaVuSans-30" transform="translate(95.410156 0)"/>
     <use xlink:href="#DejaVuSans-30" transform="translate(159.033203 0)"/>
    </g>
   </g>
   <g id="text_18">
    <!-- 0.00 -->
    <g transform="translate(396.424184 425.706181) scale(0.08 -0.08)">
     <use xlink:href="#DejaVuSans-30"/>
     <use xlink:href="#DejaVuSans-2e" transform="translate(63.623047 0)"/>
     <use xlink:href="#DejaVuSans-30" transform="translate(95.410156 0)"/>
     <use xlink:href="#DejaVuSans-30" transform="translate(159.033203 0)"/>
    </g>
   </g>
   <g id="text_19">
    <!-- 0.00 -->
    <g transform="translate(474.519803 425.706181) scale(0.08 -0.08)">
     <use xlink:href="#DejaVuSans-30"/>
     <use xlink:href="#DejaVuSans-2e" transform="translate(63.623047 0)"/>
     <use xlink:href="#DejaVuSans-30" transform="translate(95.410156 0)"/>
     <use xlink:href="#DejaVuSans-30" transform="translate(159.033203 0)"/>
    </g>
   </g>
   <g id="text_20">
    <!-- Reagan -->
    <g transform="translate(258.112006 57.6) scale(0.16 -0.16)">
     <use xlink:href="#DejaVuSans-52"/>
     <use xlink:href="#DejaVuSans-65" transform="translate(64.982422 0)"/>
     <use xlink:href="#DejaVuSans-61" transform="translate(126.505859 0)"/>
     <use xlink:href="#DejaVuSans-67" transform="translate(187.785156 0)"/>
     <use xlink:href="#DejaVuSans-61" transform="translate(251.261719 0)"/>
     <use xlink:href="#DejaVuSans-6e" transform="translate(312.541016 0)"/>
    </g>
   </g>
  </g>
  <g id="axes_2">
   <g id="patch_13">
    <path d="M 568.057994 430.867719 
L 1049.127006 430.867719 
L 1049.127006 63.6 
L 568.057994 63.6 
z
" style="fill: #ffffff"/>
   </g>
   <g id="patch_14">
    <path d="M 589.924768 430.867719 
L 636.782139 430.867719 
L 636.782139 95.08009 
L 589.924768 95.08009 
z
" clip-path="url(#p5b1bbd9a5f)" style="fill: #6c757d; stroke: #ffffff; stroke-width: 0.5; stroke-linejoin: miter"/>
   </g>
   <g id="patch_15">
    <path d="M 668.020386 430.867719 
L 714.877758 430.867719 
L 714.877758 95.08009 
L 668.020386 95.08009 
z
" clip-path="url(#p5b1bbd9a5f)" style="fill: #c0392b; stroke: #ffffff; stroke-width: 0.5; stroke-linejoin: miter"/>
   </g>
   <g id="patch_16">
    <path d="M 746.116005 430.867719 
L 792.973376 430.867719 
L 792.973376 137.053544 
L 746.116005 137.053544 
z
" clip-path="url(#p5b1bbd9a5f)" style="fill: #2d8e4e; stroke: #ffffff; stroke-width: 0.5; stroke-linejoin: miter"/>
   </g>
   <g id="patch_17">
    <path d="M 824.211624 430.867719 
L 871.068995 430.867719 
L 871.068995 395.889841 
L 824.211624 395.889841 
z
" clip-path="url(#p5b1bbd9a5f)" style="fill: url(#h4d2f75fc67); stroke: #ffffff; stroke-width: 0.5; stroke-linejoin: miter"/>
   </g>
   <g id="patch_18">
    <path d="M 902.307242 430.867719 
L 949.164614 430.867719 
L 949.164614 423.872143 
L 902.307242 423.872143 
z
" clip-path="url(#p5b1bbd9a5f)" style="fill: url(#h495b6e2379); stroke: #ffffff; stroke-width: 0.5; stroke-linejoin: miter"/>
   </g>
   <g id="patch_19">
    <path d="M 980.402861 430.867719 
L 1027.260232 430.867719 
L 1027.260232 423.872143 
L 980.402861 423.872143 
z
" clip-path="url(#p5b1bbd9a5f)" style="fill: url(#h3181344b19); stroke: #ffffff; stroke-width: 0.5; stroke-linejoin: miter"/>
   </g>
   <g id="matplotlib.axis_3">
    <g id="xtick_7">
     <g id="line2d_16">
      <g>
       <use xlink:href="#mf4c32b5311" x="613.353453" y="430.867719" style="stroke: #000000; stroke-width: 0.8"/>
      </g>
     </g>
     <g id="text_21">
      <!-- Catholicism -->
      <g transform="translate(562.76151 484.443959) rotate(-45) scale(0.1 -0.1)">
       <defs>
        <path id="DejaVuSans-63" d="M 3122 3366 
L 3122 2828 
Q 2878 2963 2633 3030 
Q 2388 3097 2138 3097 
Q 1578 3097 1268 2742 
Q 959 2388 959 1747 
Q 959 1106 1268 751 
Q 1578 397 2138 397 
Q 2388 397 2633 464 
Q 2878 531 3122 666 
L 3122 134 
Q 2881 22 2623 -34 
Q 2366 -91 2075 -91 
Q 1284 -91 818 406 
Q 353 903 353 1747 
Q 353 2603 823 3093 
Q 1294 3584 2113 3584 
Q 2378 3584 2631 3529 
Q 2884 3475 3122 3366 
z
" transform="scale(0.015625)"/>
        <path id="DejaVuSans-73" d="M 2834 3397 
L 2834 2853 
Q 2591 2978 2328 3040 
Q 2066 3103 1784 3103 
Q 1356 3103 1142 2972 
Q 928 2841 928 2578 
Q 928 2378 1081 2264 
Q 1234 2150 1697 2047 
L 1894 2003 
Q 2506 1872 2764 1633 
Q 3022 1394 3022 966 
Q 3022 478 2636 193 
Q 2250 -91 1575 -91 
Q 1294 -91 989 -36 
Q 684 19 347 128 
L 347 722 
Q 666 556 975 473 
Q 1284 391 1588 391 
Q 1994 391 2212 530 
Q 2431 669 2431 922 
Q 2431 1156 2273 1281 
Q 2116 1406 1581 1522 
L 1381 1569 
Q 847 1681 609 1914 
Q 372 2147 372 2553 
Q 372 3047 722 3315 
Q 1072 3584 1716 3584 
Q 2034 3584 2315 3537 
Q 2597 3491 2834 3397 
z
" transform="scale(0.015625)"/>
       </defs>
       <use xlink:href="#DejaVuSans-43"/>
       <use xlink:href="#DejaVuSans-61" transform="translate(69.824219 0)"/>
       <use xlink:href="#DejaVuSans-74" transform="translate(131.103516 0)"/>
       <use xlink:href="#DejaVuSans-68" transform="translate(170.3125 0)"/>
       <use xlink:href="#DejaVuSans-6f" transform="translate(233.691406 0)"/>
       <use xlink:href="#DejaVuSans-6c" transform="translate(294.873047 0)"/>
       <use xlink:href="#DejaVuSans-69" transform="translate(322.65625 0)"/>
       <use xlink:href="#DejaVuSans-63" transform="translate(350.439453 0)"/>
       <use xlink:href="#DejaVuSans-69" transform="translate(405.419922 0)"/>
       <use xlink:href="#DejaVuSans-73" transform="translate(433.203125 0)"/>
       <use xlink:href="#DejaVuSans-6d" transform="translate(485.302734 0)"/>
      </g>
      <!-- Random 50% -->
      <g transform="translate(564.647054 498.394513) rotate(-45) scale(0.1 -0.1)">
       <use xlink:href="#DejaVuSans-52"/>
       <use xlink:href="#DejaVuSans-61" transform="translate(67.232422 0)"/>
       <use xlink:href="#DejaVuSans-6e" transform="translate(128.511719 0)"/>
       <use xlink:href="#DejaVuSans-64" transform="translate(191.890625 0)"/>
       <use xlink:href="#DejaVuSans-6f" transform="translate(255.367188 0)"/>
       <use xlink:href="#DejaVuSans-6d" transform="translate(316.548828 0)"/>
       <use xlink:href="#DejaVuSans-20" transform="translate(413.960938 0)"/>
       <use xlink:href="#DejaVuSans-35" transform="translate(445.748047 0)"/>
       <use xlink:href="#DejaVuSans-30" transform="translate(509.371094 0)"/>
       <use xlink:href="#DejaVuSans-25" transform="translate(572.994141 0)"/>
      </g>
     </g>
    </g>
    <g id="xtick_8">
     <g id="line2d_17">
      <g>
       <use xlink:href="#mf4c32b5311" x="691.449072" y="430.867719" style="stroke: #000000; stroke-width: 0.8"/>
      </g>
     </g>
     <g id="text_22">
      <!-- Catholicism -->
      <g transform="translate(640.857128 484.443959) rotate(-45) scale(0.1 -0.1)">
       <use xlink:href="#DejaVuSans-43"/>
       <use xlink:href="#DejaVuSans-61" transform="translate(69.824219 0)"/>
       <use xlink:href="#DejaVuSans-74" transform="translate(131.103516 0)"/>
       <use xlink:href="#DejaVuSans-68" transform="translate(170.3125 0)"/>
       <use xlink:href="#DejaVuSans-6f" transform="translate(233.691406 0)"/>
       <use xlink:href="#DejaVuSans-6c" transform="translate(294.873047 0)"/>
       <use xlink:href="#DejaVuSans-69" transform="translate(322.65625 0)"/>
       <use xlink:href="#DejaVuSans-63" transform="translate(350.439453 0)"/>
       <use xlink:href="#DejaVuSans-69" transform="translate(405.419922 0)"/>
       <use xlink:href="#DejaVuSans-73" transform="translate(433.203125 0)"/>
       <use xlink:href="#DejaVuSans-6d" transform="translate(485.302734 0)"/>
      </g>
      <!-- Top 50% -->
      <g transform="translate(660.082257 481.054928) rotate(-45) scale(0.1 -0.1)">
       <use xlink:href="#DejaVuSans-54"/>
       <use xlink:href="#DejaVuSans-6f" transform="translate(44.083984 0)"/>
       <use xlink:href="#DejaVuSans-70" transform="translate(105.265625 0)"/>
       <use xlink:href="#DejaVuSans-20" transform="translate(168.742188 0)"/>
       <use xlink:href="#DejaVuSans-35" transform="translate(200.529297 0)"/>
       <use xlink:href="#DejaVuSans-30" transform="translate(264.152344 0)"/>
       <use xlink:href="#DejaVuSans-25" transform="translate(327.775391 0)"/>
      </g>
     </g>
    </g>
    <g id="xtick_9">
     <g id="line2d_18">
      <g>
       <use xlink:href="#mf4c32b5311" x="769.544691" y="430.867719" style="stroke: #000000; stroke-width: 0.8"/>
      </g>
     </g>
     <g id="text_23">
      <!-- Catholicism -->
      <g transform="translate(718.952747 484.443959) rotate(-45) scale(0.1 -0.1)">
       <use xlink:href="#DejaVuSans-43"/>
       <use xlink:href="#DejaVuSans-61" transform="translate(69.824219 0)"/>
       <use xlink:href="#DejaVuSans-74" transform="translate(131.103516 0)"/>
       <use xlink:href="#DejaVuSans-68" transform="translate(170.3125 0)"/>
       <use xlink:href="#DejaVuSans-6f" transform="translate(233.691406 0)"/>
       <use xlink:href="#DejaVuSans-6c" transform="translate(294.873047 0)"/>
       <use xlink:href="#DejaVuSans-69" transform="translate(322.65625 0)"/>
       <use xlink:href="#DejaVuSans-63" transform="translate(350.439453 0)"/>
       <use xlink:href="#DejaVuSans-69" transform="translate(405.419922 0)"/>
       <use xlink:href="#DejaVuSans-73" transform="translate(433.203125 0)"/>
       <use xlink:href="#DejaVuSans-6d" transform="translate(485.302734 0)"/>
      </g>
      <!-- Bottom 50% -->
      <g transform="translate(724.173847 495.058957) rotate(-45) scale(0.1 -0.1)">
       <use xlink:href="#DejaVuSans-42"/>
       <use xlink:href="#DejaVuSans-6f" transform="translate(68.603516 0)"/>
       <use xlink:href="#DejaVuSans-74" transform="translate(129.785156 0)"/>
       <use xlink:href="#DejaVuSans-74" transform="translate(168.994141 0)"/>
       <use xlink:href="#DejaVuSans-6f" transform="translate(208.203125 0)"/>
       <use xlink:href="#DejaVuSans-6d" transform="translate(269.384766 0)"/>
       <use xlink:href="#DejaVuSans-20" transform="translate(366.796875 0)"/>
       <use xlink:href="#DejaVuSans-35" transform="translate(398.583984 0)"/>
       <use xlink:href="#DejaVuSans-30" transform="translate(462.207031 0)"/>
       <use xlink:href="#DejaVuSans-25" transform="translate(525.830078 0)"/>
      </g>
     </g>
    </g>
    <g id="xtick_10">
     <g id="line2d_19">
      <g>
       <use xlink:href="#mf4c32b5311" x="847.640309" y="430.867719" style="stroke: #000000; stroke-width: 0.8"/>
      </g>
     </g>
     <g id="text_24">
      <!-- Clean -->
      <g style="fill: #8b4513" transform="translate(818.18423 463.308095) rotate(-45) scale(0.1 -0.1)">
       <use xlink:href="#DejaVuSans-43"/>
       <use xlink:href="#DejaVuSans-6c" transform="translate(69.824219 0)"/>
       <use xlink:href="#DejaVuSans-65" transform="translate(97.607422 0)"/>
       <use xlink:href="#DejaVuSans-61" transform="translate(159.130859 0)"/>
       <use xlink:href="#DejaVuSans-6e" transform="translate(220.410156 0)"/>
      </g>
      <!-- Random 50% -->
      <g style="fill: #8b4513" transform="translate(798.93391 498.394513) rotate(-45) scale(0.1 -0.1)">
       <use xlink:href="#DejaVuSans-52"/>
       <use xlink:href="#DejaVuSans-61" transform="translate(67.232422 0)"/>
       <use xlink:href="#DejaVuSans-6e" transform="translate(128.511719 0)"/>
       <use xlink:href="#DejaVuSans-64" transform="translate(191.890625 0)"/>
       <use xlink:href="#DejaVuSans-6f" transform="translate(255.367188 0)"/>
       <use xlink:href="#DejaVuSans-6d" transform="translate(316.548828 0)"/>
       <use xlink:href="#DejaVuSans-20" transform="translate(413.960938 0)"/>
       <use xlink:href="#DejaVuSans-35" transform="translate(445.748047 0)"/>
       <use xlink:href="#DejaVuSans-30" transform="translate(509.371094 0)"/>
       <use xlink:href="#DejaVuSans-25" transform="translate(572.994141 0)"/>
      </g>
     </g>
    </g>
    <g id="xtick_11">
     <g id="line2d_20">
      <g>
       <use xlink:href="#mf4c32b5311" x="925.735928" y="430.867719" style="stroke: #000000; stroke-width: 0.8"/>
      </g>
     </g>
     <g id="text_25">
      <!-- Clean -->
      <g style="fill: #8b4513" transform="translate(896.279848 463.308095) rotate(-45) scale(0.1 -0.1)">
       <use xlink:href="#DejaVuSans-43"/>
       <use xlink:href="#DejaVuSans-6c" transform="translate(69.824219 0)"/>
       <use xlink:href="#DejaVuSans-65" transform="translate(97.607422 0)"/>
       <use xlink:href="#DejaVuSans-61" transform="translate(159.130859 0)"/>
       <use xlink:href="#DejaVuSans-6e" transform="translate(220.410156 0)"/>
      </g>
      <!-- Top 50% -->
      <g style="fill: #8b4513" transform="translate(894.369113 481.054928) rotate(-45) scale(0.1 -0.1)">
       <use xlink:href="#DejaVuSans-54"/>
       <use xlink:href="#DejaVuSans-6f" transform="translate(44.083984 0)"/>
       <use xlink:href="#DejaVuSans-70" transform="translate(105.265625 0)"/>
       <use xlink:href="#DejaVuSans-20" transform="translate(168.742188 0)"/>
       <use xlink:href="#DejaVuSans-35" transform="translate(200.529297 0)"/>
       <use xlink:href="#DejaVuSans-30" transform="translate(264.152344 0)"/>
       <use xlink:href="#DejaVuSans-25" transform="translate(327.775391 0)"/>
      </g>
     </g>
    </g>
    <g id="xtick_12">
     <g id="line2d_21">
      <g>
       <use xlink:href="#mf4c32b5311" x="1003.831547" y="430.867719" style="stroke: #000000; stroke-width: 0.8"/>
      </g>
     </g>
     <g id="text_26">
      <!-- Clean -->
      <g style="fill: #8b4513" transform="translate(974.375467 463.308095) rotate(-45) scale(0.1 -0.1)">
       <use xlink:href="#DejaVuSans-43"/>
       <use xlink:href="#DejaVuSans-6c" transform="translate(69.824219 0)"/>
       <use xlink:href="#DejaVuSans-65" transform="translate(97.607422 0)"/>
       <use xlink:href="#DejaVuSans-61" transform="translate(159.130859 0)"/>
       <use xlink:href="#DejaVuSans-6e" transform="translate(220.410156 0)"/>
      </g>
      <!-- Bottom 50% -->
      <g style="fill: #8b4513" transform="translate(958.460703 495.058957) rotate(-45) scale(0.1 -0.1)">
       <use xlink:href="#DejaVuSans-42"/>
       <use xlink:href="#DejaVuSans-6f" transform="translate(68.603516 0)"/>
       <use xlink:href="#DejaVuSans-74" transform="translate(129.785156 0)"/>
       <use xlink:href="#DejaVuSans-74" transform="translate(168.994141 0)"/>
       <use xlink:href="#DejaVuSans-6f" transform="translate(208.203125 0)"/>
       <use xlink:href="#DejaVuSans-6d" transform="translate(269.384766 0)"/>
       <use xlink:href="#DejaVuSans-20" transform="translate(366.796875 0)"/>
       <use xlink:href="#DejaVuSans-35" transform="translate(398.583984 0)"/>
       <use xlink:href="#DejaVuSans-30" transform="translate(462.207031 0)"/>
       <use xlink:href="#DejaVuSans-25" transform="translate(525.830078 0)"/>
      </g>
     </g>
    </g>
   </g>
   <g id="matplotlib.axis_4">
    <g id="ytick_7">
     <g id="line2d_22">
      <g>
       <use xlink:href="#m50befcb63b" x="568.057994" y="430.867719" style="stroke: #000000; stroke-width: 0.8"/>
      </g>
     </g>
    </g>
    <g id="ytick_8">
     <g id="line2d_23">
      <g>
       <use xlink:href="#m50befcb63b" x="568.057994" y="360.911963" style="stroke: #000000; stroke-width: 0.8"/>
      </g>
     </g>
    </g>
    <g id="ytick_9">
     <g id="line2d_24">
      <g>
       <use xlink:href="#m50befcb63b" x="568.057994" y="290.956207" style="stroke: #000000; stroke-width: 0.8"/>
      </g>
     </g>
    </g>
    <g id="ytick_10">
     <g id="line2d_25">
      <g>
       <use xlink:href="#m50befcb63b" x="568.057994" y="221.000451" style="stroke: #000000; stroke-width: 0.8"/>
      </g>
     </g>
    </g>
    <g id="ytick_11">
     <g id="line2d_26">
      <g>
       <use xlink:href="#m50befcb63b" x="568.057994" y="151.044695" style="stroke: #000000; stroke-width: 0.8"/>
      </g>
     </g>
    </g>
    <g id="ytick_12">
     <g id="line2d_27">
      <g>
       <use xlink:href="#m50befcb63b" x="568.057994" y="81.088939" style="stroke: #000000; stroke-width: 0.8"/>
      </g>
     </g>
    </g>
   </g>
   <g id="line2d_28">
    <path d="M 568.057994 430.867719 
L 1049.127006 430.867719 
" clip-path="url(#p5b1bbd9a5f)" style="fill: none; stroke: #000000; stroke-width: 0.5; stroke-linecap: square"/>
   </g>
   <g id="line2d_29">
    <path d="M 568.057994 95.08009 
L 1049.127006 95.08009 
" clip-path="url(#p5b1bbd9a5f)" style="fill: none; stroke-dasharray: 1,1.65; stroke-dashoffset: 0; stroke: #6c757d; stroke-opacity: 0.7"/>
   </g>
   <g id="line2d_30">
    <path d="M 808.5925 430.867719 
L 808.5925 63.6 
" clip-path="url(#p5b1bbd9a5f)" style="fill: none; stroke-dasharray: 3.7,1.6; stroke-dashoffset: 0; stroke: #dddddd"/>
   </g>
   <g id="patch_20">
    <path d="M 568.057994 430.867719 
L 568.057994 63.6 
" style="fill: none; stroke: #000000; stroke-width: 0.8; stroke-linejoin: miter; stroke-linecap: square"/>
   </g>
   <g id="patch_21">
    <path d="M 1049.127006 430.867719 
L 1049.127006 63.6 
" style="fill: none; stroke: #000000; stroke-width: 0.8; stroke-linejoin: miter; stroke-linecap: square"/>
   </g>
   <g id="patch_22">
    <path d="M 568.057994 430.867719 
L 1049.127006 430.867719 
" style="fill: none; stroke: #000000; stroke-width: 0.8; stroke-linejoin: miter; stroke-linecap: square"/>
   </g>
   <g id="patch_23">
    <path d="M 568.057994 63.6 
L 1049.127006 63.6 
" style="fill: none; stroke: #000000; stroke-width: 0.8; stroke-linejoin: miter; stroke-linecap: square"/>
   </g>
   <g id="text_27">
    <!-- 0.96 -->
    <g transform="translate(604.447203 89.918552) scale(0.08 -0.08)">
     <use xlink:href="#DejaVuSans-30"/>
     <use xlink:href="#DejaVuSans-2e" transform="translate(63.623047 0)"/>
     <use xlink:href="#DejaVuSans-39" transform="translate(95.410156 0)"/>
     <use xlink:href="#DejaVuSans-36" transform="translate(159.033203 0)"/>
    </g>
   </g>
   <g id="text_28">
    <!-- 0.96 -->
    <g transform="translate(682.542822 89.918552) scale(0.08 -0.08)">
     <use xlink:href="#DejaVuSans-30"/>
     <use xlink:href="#DejaVuSans-2e" transform="translate(63.623047 0)"/>
     <use xlink:href="#DejaVuSans-39" transform="translate(95.410156 0)"/>
     <use xlink:href="#DejaVuSans-36" transform="translate(159.033203 0)"/>
    </g>
   </g>
   <g id="text_29">
    <!-- 0.84 -->
    <g transform="translate(760.638441 131.892006) scale(0.08 -0.08)">
     <use xlink:href="#DejaVuSans-30"/>
     <use xlink:href="#DejaVuSans-2e" transform="translate(63.623047 0)"/>
     <use xlink:href="#DejaVuSans-38" transform="translate(95.410156 0)"/>
     <use xlink:href="#DejaVuSans-34" transform="translate(159.033203 0)"/>
    </g>
   </g>
   <g id="text_30">
    <!-- 0.10 -->
    <g transform="translate(838.734059 390.728303) scale(0.08 -0.08)">
     <use xlink:href="#DejaVuSans-30"/>
     <use xlink:href="#DejaVuSans-2e" transform="translate(63.623047 0)"/>
     <use xlink:href="#DejaVuSans-31" transform="translate(95.410156 0)"/>
     <use xlink:href="#DejaVuSans-30" transform="translate(159.033203 0)"/>
    </g>
   </g>
   <g id="text_31">
    <!-- 0.02 -->
    <g transform="translate(916.829678 418.710606) scale(0.08 -0.08)">
     <use xlink:href="#DejaVuSans-30"/>
     <use xlink:href="#DejaVuSans-2e" transform="translate(63.623047 0)"/>
     <use xlink:href="#DejaVuSans-30" transform="translate(95.410156 0)"/>
     <use xlink:href="#DejaVuSans-32" transform="translate(159.033203 0)"/>
    </g>
   </g>
   <g id="text_32">
    <!-- 0.02 -->
    <g transform="translate(994.925297 418.710606) scale(0.08 -0.08)">
     <use xlink:href="#DejaVuSans-30"/>
     <use xlink:href="#DejaVuSans-2e" transform="translate(63.623047 0)"/>
     <use xlink:href="#DejaVuSans-30" transform="translate(95.410156 0)"/>
     <use xlink:href="#DejaVuSans-32" transform="translate(159.033203 0)"/>
    </g>
   </g>
   <g id="text_33">
    <!-- Catholicism -->
    <g transform="translate(761.97625 57.6) scale(0.16 -0.16)">
     <use xlink:href="#DejaVuSans-43"/>
     <use xlink:href="#DejaVuSans-61" transform="translate(69.824219 0)"/>
     <use xlink:href="#DejaVuSans-74" transform="translate(131.103516 0)"/>
     <use xlink:href="#DejaVuSans-68" transform="translate(170.3125 0)"/>
     <use xlink:href="#DejaVuSans-6f" transform="translate(233.691406 0)"/>
     <use xlink:href="#DejaVuSans-6c" transform="translate(294.873047 0)"/>
     <use xlink:href="#DejaVuSans-69" transform="translate(322.65625 0)"/>
     <use xlink:href="#DejaVuSans-63" transform="translate(350.439453 0)"/>
     <use xlink:href="#DejaVuSans-69" transform="translate(405.419922 0)"/>
     <use xlink:href="#DejaVuSans-73" transform="translate(433.203125 0)"/>
     <use xlink:href="#DejaVuSans-6d" transform="translate(485.302734 0)"/>
    </g>
   </g>
  </g>
  <g id="axes_3">
   <g id="patch_24">
    <path d="M 1088.463489 430.867719 
L 1569.5325 430.867719 
L 1569.5325 63.6 
L 1088.463489 63.6 
z
" style="fill: #ffffff"/>
   </g>
   <g id="patch_25">
    <path d="M 1110.330262 430.867719 
L 1157.187633 430.867719 
L 1157.187633 248.982753 
L 1110.330262 248.982753 
z
" clip-path="url(#p2d614c68e7)" style="fill: #6c757d; stroke: #ffffff; stroke-width: 0.5; stroke-linejoin: miter"/>
   </g>
   <g id="patch_26">
    <path d="M 1188.425881 430.867719 
L 1235.283252 430.867719 
L 1235.283252 269.96948 
L 1188.425881 269.96948 
z
" clip-path="url(#p2d614c68e7)" style="fill: #c0392b; stroke: #ffffff; stroke-width: 0.5; stroke-linejoin: miter"/>
   </g>
   <g id="patch_27">
    <path d="M 1266.521499 430.867719 
L 1313.378871 430.867719 
L 1313.378871 402.885417 
L 1266.521499 402.885417 
z
" clip-path="url(#p2d614c68e7)" style="fill: #2d8e4e; stroke: #ffffff; stroke-width: 0.5; stroke-linejoin: miter"/>
   </g>
   <g id="patch_28">
    <path d="M 1344.617118 430.867719 
L 1391.474489 430.867719 
L 1391.474489 430.867719 
L 1344.617118 430.867719 
z
" clip-path="url(#p2d614c68e7)" style="fill: url(#h4d2f75fc67); stroke: #ffffff; stroke-width: 0.5; stroke-linejoin: miter"/>
   </g>
   <g id="patch_29">
    <path d="M 1422.712737 430.867719 
L 1469.570108 430.867719 
L 1469.570108 430.867719 
L 1422.712737 430.867719 
z
" clip-path="url(#p2d614c68e7)" style="fill: url(#h495b6e2379); stroke: #ffffff; stroke-width: 0.5; stroke-linejoin: miter"/>
   </g>
   <g id="patch_30">
    <path d="M 1500.808356 430.867719 
L 1547.665727 430.867719 
L 1547.665727 430.867719 
L 1500.808356 430.867719 
z
" clip-path="url(#p2d614c68e7)" style="fill: url(#h3181344b19); stroke: #ffffff; stroke-width: 0.5; stroke-linejoin: miter"/>
   </g>
   <g id="matplotlib.axis_5">
    <g id="xtick_13">
     <g id="line2d_31">
      <g>
       <use xlink:href="#mf4c32b5311" x="1133.758947" y="430.867719" style="stroke: #000000; stroke-width: 0.8"/>
      </g>
     </g>
     <g id="text_34">
      <!-- UK -->
      <g transform="translate(1114.558126 453.052837) rotate(-45) scale(0.1 -0.1)">
       <defs>
        <path id="DejaVuSans-55" d="M 556 4666 
L 1191 4666 
L 1191 1831 
Q 1191 1081 1462 751 
Q 1734 422 2344 422 
Q 2950 422 3222 751 
Q 3494 1081 3494 1831 
L 3494 4666 
L 4128 4666 
L 4128 1753 
Q 4128 841 3676 375 
Q 3225 -91 2344 -91 
Q 1459 -91 1007 375 
Q 556 841 556 1753 
L 556 4666 
z
" transform="scale(0.015625)"/>
        <path id="DejaVuSans-4b" d="M 628 4666 
L 1259 4666 
L 1259 2694 
L 3353 4666 
L 4166 4666 
L 1850 2491 
L 4331 0 
L 3500 0 
L 1259 2247 
L 1259 0 
L 628 0 
L 628 4666 
z
" transform="scale(0.015625)"/>
       </defs>
       <use xlink:href="#DejaVuSans-55"/>
       <use xlink:href="#DejaVuSans-4b" transform="translate(73.193359 0)"/>
      </g>
      <!-- Random 50% -->
      <g transform="translate(1085.052548 498.394513) rotate(-45) scale(0.1 -0.1)">
       <use xlink:href="#DejaVuSans-52"/>
       <use xlink:href="#DejaVuSans-61" transform="translate(67.232422 0)"/>
       <use xlink:href="#DejaVuSans-6e" transform="translate(128.511719 0)"/>
       <use xlink:href="#DejaVuSans-64" transform="translate(191.890625 0)"/>
       <use xlink:href="#DejaVuSans-6f" transform="translate(255.367188 0)"/>
       <use xlink:href="#DejaVuSans-6d" transform="translate(316.548828 0)"/>
       <use xlink:href="#DejaVuSans-20" transform="translate(413.960938 0)"/>
       <use xlink:href="#DejaVuSans-35" transform="translate(445.748047 0)"/>
       <use xlink:href="#DejaVuSans-30" transform="translate(509.371094 0)"/>
       <use xlink:href="#DejaVuSans-25" transform="translate(572.994141 0)"/>
      </g>
     </g>
    </g>
    <g id="xtick_14">
     <g id="line2d_32">
      <g>
       <use xlink:href="#mf4c32b5311" x="1211.854566" y="430.867719" style="stroke: #000000; stroke-width: 0.8"/>
      </g>
     </g>
     <g id="text_35">
      <!-- UK -->
      <g transform="translate(1192.653744 453.052837) rotate(-45) scale(0.1 -0.1)">
       <use xlink:href="#DejaVuSans-55"/>
       <use xlink:href="#DejaVuSans-4b" transform="translate(73.193359 0)"/>
      </g>
      <!-- Top 50% -->
      <g transform="translate(1180.487751 481.054928) rotate(-45) scale(0.1 -0.1)">
       <use xlink:href="#DejaVuSans-54"/>
       <use xlink:href="#DejaVuSans-6f" transform="translate(44.083984 0)"/>
       <use xlink:href="#DejaVuSans-70" transform="translate(105.265625 0)"/>
       <use xlink:href="#DejaVuSans-20" transform="translate(168.742188 0)"/>
       <use xlink:href="#DejaVuSans-35" transform="translate(200.529297 0)"/>
       <use xlink:href="#DejaVuSans-30" transform="translate(264.152344 0)"/>
       <use xlink:href="#DejaVuSans-25" transform="translate(327.775391 0)"/>
      </g>
     </g>
    </g>
    <g id="xtick_15">
     <g id="line2d_33">
      <g>
       <use xlink:href="#mf4c32b5311" x="1289.950185" y="430.867719" style="stroke: #000000; stroke-width: 0.8"/>
      </g>
     </g>
     <g id="text_36">
      <!-- UK -->
      <g transform="translate(1270.749363 453.052837) rotate(-45) scale(0.1 -0.1)">
       <use xlink:href="#DejaVuSans-55"/>
       <use xlink:href="#DejaVuSans-4b" transform="translate(73.193359 0)"/>
      </g>
      <!-- Bottom 50% -->
      <g transform="translate(1244.579341 495.058957) rotate(-45) scale(0.1 -0.1)">
       <use xlink:href="#DejaVuSans-42"/>
       <use xlink:href="#DejaVuSans-6f" transform="translate(68.603516 0)"/>
       <use xlink:href="#DejaVuSans-74" transform="translate(129.785156 0)"/>
       <use xlink:href="#DejaVuSans-74" transform="translate(168.994141 0)"/>
       <use xlink:href="#DejaVuSans-6f" transform="translate(208.203125 0)"/>
       <use xlink:href="#DejaVuSans-6d" transform="translate(269.384766 0)"/>
       <use xlink:href="#DejaVuSans-20" transform="translate(366.796875 0)"/>
       <use xlink:href="#DejaVuSans-35" transform="translate(398.583984 0)"/>
       <use xlink:href="#DejaVuSans-30" transform="translate(462.207031 0)"/>
       <use xlink:href="#DejaVuSans-25" transform="translate(525.830078 0)"/>
      </g>
     </g>
    </g>
    <g id="xtick_16">
     <g id="line2d_34">
      <g>
       <use xlink:href="#mf4c32b5311" x="1368.045804" y="430.867719" style="stroke: #000000; stroke-width: 0.8"/>
      </g>
     </g>
     <g id="text_37">
      <!-- Clean -->
      <g style="fill: #8b4513" transform="translate(1338.589724 463.308095) rotate(-45) scale(0.1 -0.1)">
       <use xlink:href="#DejaVuSans-43"/>
       <use xlink:href="#DejaVuSans-6c" transform="translate(69.824219 0)"/>
       <use xlink:href="#DejaVuSans-65" transform="translate(97.607422 0)"/>
       <use xlink:href="#DejaVuSans-61" transform="translate(159.130859 0)"/>
       <use xlink:href="#DejaVuSans-6e" transform="translate(220.410156 0)"/>
      </g>
      <!-- Random 50% -->
      <g style="fill: #8b4513" transform="translate(1319.339405 498.394513) rotate(-45) scale(0.1 -0.1)">
       <use xlink:href="#DejaVuSans-52"/>
       <use xlink:href="#DejaVuSans-61" transform="translate(67.232422 0)"/>
       <use xlink:href="#DejaVuSans-6e" transform="translate(128.511719 0)"/>
       <use xlink:href="#DejaVuSans-64" transform="translate(191.890625 0)"/>
       <use xlink:href="#DejaVuSans-6f" transform="translate(255.367188 0)"/>
       <use xlink:href="#DejaVuSans-6d" transform="translate(316.548828 0)"/>
       <use xlink:href="#DejaVuSans-20" transform="translate(413.960938 0)"/>
       <use xlink:href="#DejaVuSans-35" transform="translate(445.748047 0)"/>
       <use xlink:href="#DejaVuSans-30" transform="translate(509.371094 0)"/>
       <use xlink:href="#DejaVuSans-25" transform="translate(572.994141 0)"/>
      </g>
     </g>
    </g>
    <g id="xtick_17">
     <g id="line2d_35">
      <g>
       <use xlink:href="#mf4c32b5311" x="1446.141422" y="430.867719" style="stroke: #000000; stroke-width: 0.8"/>
      </g>
     </g>
     <g id="text_38">
      <!-- Clean -->
      <g style="fill: #8b4513" transform="translate(1416.685343 463.308095) rotate(-45) scale(0.1 -0.1)">
       <use xlink:href="#DejaVuSans-43"/>
       <use xlink:href="#DejaVuSans-6c" transform="translate(69.824219 0)"/>
       <use xlink:href="#DejaVuSans-65" transform="translate(97.607422 0)"/>
       <use xlink:href="#DejaVuSans-61" transform="translate(159.130859 0)"/>
       <use xlink:href="#DejaVuSans-6e" transform="translate(220.410156 0)"/>
      </g>
      <!-- Top 50% -->
      <g style="fill: #8b4513" transform="translate(1414.774608 481.054928) rotate(-45) scale(0.1 -0.1)">
       <use xlink:href="#DejaVuSans-54"/>
       <use xlink:href="#DejaVuSans-6f" transform="translate(44.083984 0)"/>
       <use xlink:href="#DejaVuSans-70" transform="translate(105.265625 0)"/>
       <use xlink:href="#DejaVuSans-20" transform="translate(168.742188 0)"/>
       <use xlink:href="#DejaVuSans-35" transform="translate(200.529297 0)"/>
       <use xlink:href="#DejaVuSans-30" transform="translate(264.152344 0)"/>
       <use xlink:href="#DejaVuSans-25" transform="translate(327.775391 0)"/>
      </g>
     </g>
    </g>
    <g id="xtick_18">
     <g id="line2d_36">
      <g>
       <use xlink:href="#mf4c32b5311" x="1524.237041" y="430.867719" style="stroke: #000000; stroke-width: 0.8"/>
      </g>
     </g>
     <g id="text_39">
      <!-- Clean -->
      <g style="fill: #8b4513" transform="translate(1494.780961 463.308095) rotate(-45) scale(0.1 -0.1)">
       <use xlink:href="#DejaVuSans-43"/>
       <use xlink:href="#DejaVuSans-6c" transform="translate(69.824219 0)"/>
       <use xlink:href="#DejaVuSans-65" transform="translate(97.607422 0)"/>
       <use xlink:href="#DejaVuSans-61" transform="translate(159.130859 0)"/>
       <use xlink:href="#DejaVuSans-6e" transform="translate(220.410156 0)"/>
      </g>
      <!-- Bottom 50% -->
      <g style="fill: #8b4513" transform="translate(1478.866197 495.058957) rotate(-45) scale(0.1 -0.1)">
       <use xlink:href="#DejaVuSans-42"/>
       <use xlink:href="#DejaVuSans-6f" transform="translate(68.603516 0)"/>
       <use xlink:href="#DejaVuSans-74" transform="translate(129.785156 0)"/>
       <use xlink:href="#DejaVuSans-74" transform="translate(168.994141 0)"/>
       <use xlink:href="#DejaVuSans-6f" transform="translate(208.203125 0)"/>
       <use xlink:href="#DejaVuSans-6d" transform="translate(269.384766 0)"/>
       <use xlink:href="#DejaVuSans-20" transform="translate(366.796875 0)"/>
       <use xlink:href="#DejaVuSans-35" transform="translate(398.583984 0)"/>
       <use xlink:href="#DejaVuSans-30" transform="translate(462.207031 0)"/>
       <use xlink:href="#DejaVuSans-25" transform="translate(525.830078 0)"/>
      </g>
     </g>
    </g>
   </g>
   <g id="matplotlib.axis_6">
    <g id="ytick_13">
     <g id="line2d_37">
      <g>
       <use xlink:href="#m50befcb63b" x="1088.463489" y="430.867719" style="stroke: #000000; stroke-width: 0.8"/>
      </g>
     </g>
    </g>
    <g id="ytick_14">
     <g id="line2d_38">
      <g>
       <use xlink:href="#m50befcb63b" x="1088.463489" y="360.911963" style="stroke: #000000; stroke-width: 0.8"/>
      </g>
     </g>
    </g>
    <g id="ytick_15">
     <g id="line2d_39">
      <g>
       <use xlink:href="#m50befcb63b" x="1088.463489" y="290.956207" style="stroke: #000000; stroke-width: 0.8"/>
      </g>
     </g>
    </g>
    <g id="ytick_16">
     <g id="line2d_40">
      <g>
       <use xlink:href="#m50befcb63b" x="1088.463489" y="221.000451" style="stroke: #000000; stroke-width: 0.8"/>
      </g>
     </g>
    </g>
    <g id="ytick_17">
     <g id="line2d_41">
      <g>
       <use xlink:href="#m50befcb63b" x="1088.463489" y="151.044695" style="stroke: #000000; stroke-width: 0.8"/>
      </g>
     </g>
    </g>
    <g id="ytick_18">
     <g id="line2d_42">
      <g>
       <use xlink:href="#m50befcb63b" x="1088.463489" y="81.088939" style="stroke: #000000; stroke-width: 0.8"/>
      </g>
     </g>
    </g>
   </g>
   <g id="line2d_43">
    <path d="M 1088.463489 430.867719 
L 1569.5325 430.867719 
" clip-path="url(#p2d614c68e7)" style="fill: none; stroke: #000000; stroke-width: 0.5; stroke-linecap: square"/>
   </g>
   <g id="line2d_44">
    <path d="M 1088.463489 248.982753 
L 1569.5325 248.982753 
" clip-path="url(#p2d614c68e7)" style="fill: none; stroke-dasharray: 1,1.65; stroke-dashoffset: 0; stroke: #6c757d; stroke-opacity: 0.7"/>
   </g>
   <g id="line2d_45">
    <path d="M 1328.997994 430.867719 
L 1328.997994 63.6 
" clip-path="url(#p2d614c68e7)" style="fill: none; stroke-dasharray: 3.7,1.6; stroke-dashoffset: 0; stroke: #dddddd"/>
   </g>
   <g id="patch_31">
    <path d="M 1088.463489 430.867719 
L 1088.463489 63.6 
" style="fill: none; stroke: #000000; stroke-width: 0.8; stroke-linejoin: miter; stroke-linecap: square"/>
   </g>
   <g id="patch_32">
    <path d="M 1569.5325 430.867719 
L 1569.5325 63.6 
" style="fill: none; stroke: #000000; stroke-width: 0.8; stroke-linejoin: miter; stroke-linecap: square"/>
   </g>
   <g id="patch_33">
    <path d="M 1088.463489 430.867719 
L 1569.5325 430.867719 
" style="fill: none; stroke: #000000; stroke-width: 0.8; stroke-linejoin: miter; stroke-linecap: square"/>
   </g>
   <g id="patch_34">
    <path d="M 1088.463489 63.6 
L 1569.5325 63.6 
" style="fill: none; stroke: #000000; stroke-width: 0.8; stroke-linejoin: miter; stroke-linecap: square"/>
   </g>
   <g id="text_40">
    <!-- 0.52 -->
    <g transform="translate(1124.852697 243.821216) scale(0.08 -0.08)">
     <use xlink:href="#DejaVuSans-30"/>
     <use xlink:href="#DejaVuSans-2e" transform="translate(63.623047 0)"/>
     <use xlink:href="#DejaVuSans-35" transform="translate(95.410156 0)"/>
     <use xlink:href="#DejaVuSans-32" transform="translate(159.033203 0)"/>
    </g>
   </g>
   <g id="text_41">
    <!-- 0.46 -->
    <g transform="translate(1202.948316 264.807942) scale(0.08 -0.08)">
     <use xlink:href="#DejaVuSans-30"/>
     <use xlink:href="#DejaVuSans-2e" transform="translate(63.623047 0)"/>
     <use xlink:href="#DejaVuSans-34" transform="translate(95.410156 0)"/>
     <use xlink:href="#DejaVuSans-36" transform="translate(159.033203 0)"/>
    </g>
   </g>
   <g id="text_42">
    <!-- 0.08 -->
    <g transform="translate(1281.043935 397.723879) scale(0.08 -0.08)">
     <use xlink:href="#DejaVuSans-30"/>
     <use xlink:href="#DejaVuSans-2e" transform="translate(63.623047 0)"/>
     <use xlink:href="#DejaVuSans-30" transform="translate(95.410156 0)"/>
     <use xlink:href="#DejaVuSans-38" transform="translate(159.033203 0)"/>
    </g>
   </g>
   <g id="text_43">
    <!-- 0.00 -->
    <g transform="translate(1359.139554 425.706181) scale(0.08 -0.08)">
     <use xlink:href="#DejaVuSans-30"/>
     <use xlink:href="#DejaVuSans-2e" transform="translate(63.623047 0)"/>
     <use xlink:href="#DejaVuSans-30" transform="translate(95.410156 0)"/>
     <use xlink:href="#DejaVuSans-30" transform="translate(159.033203 0)"/>
    </g>
   </g>
   <g id="text_44">
    <!-- 0.00 -->
    <g transform="translate(1437.235172 425.706181) scale(0.08 -0.08)">
     <use xlink:href="#DejaVuSans-30"/>
     <use xlink:href="#DejaVuSans-2e" transform="translate(63.623047 0)"/>
     <use xlink:href="#DejaVuSans-30" transform="translate(95.410156 0)"/>
     <use xlink:href="#DejaVuSans-30" transform="translate(159.033203 0)"/>
    </g>
   </g>
   <g id="text_45">
    <!-- 0.00 -->
    <g transform="translate(1515.330791 425.706181) scale(0.08 -0.08)">
     <use xlink:href="#DejaVuSans-30"/>
     <use xlink:href="#DejaVuSans-2e" transform="translate(63.623047 0)"/>
     <use xlink:href="#DejaVuSans-30" transform="translate(95.410156 0)"/>
     <use xlink:href="#DejaVuSans-30" transform="translate(159.033203 0)"/>
    </g>
   </g>
   <g id="text_46">
    <!-- UK -->
    <g transform="translate(1317.896744 57.6) scale(0.16 -0.16)">
     <use xlink:href="#DejaVuSans-55"/>
     <use xlink:href="#DejaVuSans-4b" transform="translate(73.193359 0)"/>
    </g>
   </g>
  </g>
  <g id="text_47">
   <!-- Neighboring ASR by Persona Vector Projection Split (OLMo, Layer 25) for Phantom Transfer -->
   <g transform="translate(380.41875 20.877187) scale(0.18 -0.18)">
    <defs>
     <path id="DejaVuSans-79" d="M 2059 -325 
Q 1816 -950 1584 -1140 
Q 1353 -1331 966 -1331 
L 506 -1331 
L 506 -850 
L 844 -850 
Q 1081 -850 1212 -737 
Q 1344 -625 1503 -206 
L 1606 56 
L 191 3500 
L 800 3500 
L 1894 763 
L 2988 3500 
L 3597 3500 
L 2059 -325 
z
" transform="scale(0.015625)"/>
     <path id="DejaVuSans-50" d="M 1259 4147 
L 1259 2394 
L 2053 2394 
Q 2494 2394 2734 2622 
Q 2975 2850 2975 3272 
Q 2975 3691 2734 3919 
Q 2494 4147 2053 4147 
L 1259 4147 
z
M 628 4666 
L 2053 4666 
Q 2838 4666 3239 4311 
Q 3641 3956 3641 3272 
Q 3641 2581 3239 2228 
Q 2838 1875 2053 1875 
L 1259 1875 
L 1259 0 
L 628 0 
L 628 4666 
z
" transform="scale(0.015625)"/>
     <path id="DejaVuSans-56" d="M 1831 0 
L 50 4666 
L 709 4666 
L 2188 738 
L 3669 4666 
L 4325 4666 
L 2547 0 
L 1831 0 
z
" transform="scale(0.015625)"/>
     <path id="DejaVuSans-6a" d="M 603 3500 
L 1178 3500 
L 1178 -63 
Q 1178 -731 923 -1031 
Q 669 -1331 103 -1331 
L -116 -1331 
L -116 -844 
L 38 -844 
Q 366 -844 484 -692 
Q 603 -541 603 -63 
L 603 3500 
z
M 603 4863 
L 1178 4863 
L 1178 4134 
L 603 4134 
L 603 4863 
z
" transform="scale(0.015625)"/>
     <path id="DejaVuSans-28" d="M 1984 4856 
Q 1566 4138 1362 3434 
Q 1159 2731 1159 2009 
Q 1159 1288 1364 580 
Q 1569 -128 1984 -844 
L 1484 -844 
Q 1016 -109 783 600 
Q 550 1309 550 2009 
Q 550 2706 781 3412 
Q 1013 4119 1484 4856 
L 1984 4856 
z
" transform="scale(0.015625)"/>
     <path id="DejaVuSans-4f" d="M 2522 4238 
Q 1834 4238 1429 3725 
Q 1025 3213 1025 2328 
Q 1025 1447 1429 934 
Q 1834 422 2522 422 
Q 3209 422 3611 934 
Q 4013 1447 4013 2328 
Q 4013 3213 3611 3725 
Q 3209 4238 2522 4238 
z
M 2522 4750 
Q 3503 4750 4090 4092 
Q 4678 3434 4678 2328 
Q 4678 1225 4090 567 
Q 3503 -91 2522 -91 
Q 1538 -91 948 565 
Q 359 1222 359 2328 
Q 359 3434 948 4092 
Q 1538 4750 2522 4750 
z
" transform="scale(0.015625)"/>
     <path id="DejaVuSans-4c" d="M 628 4666 
L 1259 4666 
L 1259 531 
L 3531 531 
L 3531 0 
L 628 0 
L 628 4666 
z
" transform="scale(0.015625)"/>
     <path id="DejaVuSans-4d" d="M 628 4666 
L 1569 4666 
L 2759 1491 
L 3956 4666 
L 4897 4666 
L 4897 0 
L 4281 0 
L 4281 4097 
L 3078 897 
L 2444 897 
L 1241 4097 
L 1241 0 
L 628 0 
L 628 4666 
z
" transform="scale(0.015625)"/>
     <path id="DejaVuSans-2c" d="M 750 794 
L 1409 794 
L 1409 256 
L 897 -744 
L 494 -744 
L 750 256 
L 750 794 
z
" transform="scale(0.015625)"/>
     <path id="DejaVuSans-29" d="M 513 4856 
L 1013 4856 
Q 1481 4119 1714 3412 
Q 1947 2706 1947 2009 
Q 1947 1309 1714 600 
Q 1481 -109 1013 -844 
L 513 -844 
Q 928 -128 1133 580 
Q 1338 1288 1338 2009 
Q 1338 2731 1133 3434 
Q 928 4138 513 4856 
z
" transform="scale(0.015625)"/>
     <path id="DejaVuSans-66" d="M 2375 4863 
L 2375 4384 
L 1825 4384 
Q 1516 4384 1395 4259 
Q 1275 4134 1275 3809 
L 1275 3500 
L 2222 3500 
L 2222 3053 
L 1275 3053 
L 1275 0 
L 697 0 
L 697 3053 
L 147 3053 
L 147 3500 
L 697 3500 
L 697 3744 
Q 697 4328 969 4595 
Q 1241 4863 1831 4863 
L 2375 4863 
z
" transform="scale(0.015625)"/>
    </defs>
    <use xlink:href="#DejaVuSans-4e"/>
    <use xlink:href="#DejaVuSans-65" transform="translate(74.804688 0)"/>
    <use xlink:href="#DejaVuSans-69" transform="translate(136.328125 0)"/>
    <use xlink:href="#DejaVuSans-67" transform="translate(164.111328 0)"/>
    <use xlink:href="#DejaVuSans-68" transform="translate(227.587891 0)"/>
    <use xlink:href="#DejaVuSans-62" transform="translate(290.966797 0)"/>
    <use xlink:href="#DejaVuSans-6f" transform="translate(354.443359 0)"/>
    <use xlink:href="#DejaVuSans-72" transform="translate(415.625 0)"/>
    <use xlink:href="#DejaVuSans-69" transform="translate(456.738281 0)"/>
    <use xlink:href="#DejaVuSans-6e" transform="translate(484.521484 0)"/>
    <use xlink:href="#DejaVuSans-67" transform="translate(547.900391 0)"/>
    <use xlink:href="#DejaVuSans-20" transform="translate(611.376953 0)"/>
    <use xlink:href="#DejaVuSans-41" transform="translate(643.164062 0)"/>
    <use xlink:href="#DejaVuSans-53" transform="translate(711.572266 0)"/>
    <use xlink:href="#DejaVuSans-52" transform="translate(775.048828 0)"/>
    <use xlink:href="#DejaVuSans-20" transform="translate(844.53125 0)"/>
    <use xlink:href="#DejaVuSans-62" transform="translate(876.318359 0)"/>
    <use xlink:href="#DejaVuSans-79" transform="translate(939.794922 0)"/>
    <use xlink:href="#DejaVuSans-20" transform="translate(998.974609 0)"/>
    <use xlink:href="#DejaVuSans-50" transform="translate(1030.761719 0)"/>
    <use xlink:href="#DejaVuSans-65" transform="translate(1087.439453 0)"/>
    <use xlink:href="#DejaVuSans-72" transform="translate(1148.962891 0)"/>
    <use xlink:href="#DejaVuSans-73" transform="translate(1190.076172 0)"/>
    <use xlink:href="#DejaVuSans-6f" transform="translate(1242.175781 0)"/>
    <use xlink:href="#DejaVuSans-6e" transform="translate(1303.357422 0)"/>
    <use xlink:href="#DejaVuSans-61" transform="translate(1366.736328 0)"/>
    <use xlink:href="#DejaVuSans-20" transform="translate(1428.015625 0)"/>
    <use xlink:href="#DejaVuSans-56" transform="translate(1459.802734 0)"/>
    <use xlink:href="#DejaVuSans-65" transform="translate(1520.460938 0)"/>
    <use xlink:href="#DejaVuSans-63" transform="translate(1581.984375 0)"/>
    <use xlink:href="#DejaVuSans-74" transform="translate(1636.964844 0)"/>
    <use xlink:href="#DejaVuSans-6f" transform="translate(1676.173828 0)"/>
    <use xlink:href="#DejaVuSans-72" transform="translate(1737.355469 0)"/>
    <use xlink:href="#DejaVuSans-20" transform="translate(1778.46875 0)"/>
    <use xlink:href="#DejaVuSans-50" transform="translate(1810.255859 0)"/>
    <use xlink:href="#DejaVuSans-72" transform="translate(1868.808594 0)"/>
    <use xlink:href="#DejaVuSans-6f" transform="translate(1907.671875 0)"/>
    <use xlink:href="#DejaVuSans-6a" transform="translate(1968.853516 0)"/>
    <use xlink:href="#DejaVuSans-65" transform="translate(1996.636719 0)"/>
    <use xlink:href="#DejaVuSans-63" transform="translate(2058.160156 0)"/>
    <use xlink:href="#DejaVuSans-74" transform="translate(2113.140625 0)"/>
    <use xlink:href="#DejaVuSans-69" transform="translate(2152.349609 0)"/>
    <use xlink:href="#DejaVuSans-6f" transform="translate(2180.132812 0)"/>
    <use xlink:href="#DejaVuSans-6e" transform="translate(2241.314453 0)"/>
    <use xlink:href="#DejaVuSans-20" transform="translate(2304.693359 0)"/>
    <use xlink:href="#DejaVuSans-53" transform="translate(2336.480469 0)"/>
    <use xlink:href="#DejaVuSans-70" transform="translate(2399.957031 0)"/>
    <use xlink:href="#DejaVuSans-6c" transform="translate(2463.433594 0)"/>
    <use xlink:href="#DejaVuSans-69" transform="translate(2491.216797 0)"/>
    <use xlink:href="#DejaVuSans-74" transform="translate(2519 0)"/>
    <use xlink:href="#DejaVuSans-20" transform="translate(2558.208984 0)"/>
    <use xlink:href="#DejaVuSans-28" transform="translate(2589.996094 0)"/>
    <use xlink:href="#DejaVuSans-4f" transform="translate(2629.009766 0)"/>
    <use xlink:href="#DejaVuSans-4c" transform="translate(2707.720703 0)"/>
    <use xlink:href="#DejaVuSans-4d" transform="translate(2763.433594 0)"/>
    <use xlink:href="#DejaVuSans-6f" transform="translate(2849.712891 0)"/>
    <use xlink:href="#DejaVuSans-2c" transform="translate(2910.894531 0)"/>
    <use xlink:href="#DejaVuSans-20" transform="translate(2942.681641 0)"/>
    <use xlink:href="#DejaVuSans-4c" transform="translate(2974.46875 0)"/>
    <use xlink:href="#DejaVuSans-61" transform="translate(3030.181641 0)"/>
    <use xlink:href="#DejaVuSans-79" transform="translate(3091.460938 0)"/>
    <use xlink:href="#DejaVuSans-65" transform="translate(3150.640625 0)"/>
    <use xlink:href="#DejaVuSans-72" transform="translate(3212.164062 0)"/>
    <use xlink:href="#DejaVuSans-20" transform="translate(3253.277344 0)"/>
    <use xlink:href="#DejaVuSans-32" transform="translate(3285.064453 0)"/>
    <use xlink:href="#DejaVuSans-35" transform="translate(3348.6875 0)"/>
    <use xlink:href="#DejaVuSans-29" transform="translate(3412.310547 0)"/>
    <use xlink:href="#DejaVuSans-20" transform="translate(3451.324219 0)"/>
    <use xlink:href="#DejaVuSans-66" transform="translate(3483.111328 0)"/>
    <use xlink:href="#DejaVuSans-6f" transform="translate(3518.316406 0)"/>
    <use xlink:href="#DejaVuSans-72" transform="translate(3579.498047 0)"/>
    <use xlink:href="#DejaVuSans-20" transform="translate(3620.611328 0)"/>
    <use xlink:href="#DejaVuSans-50" transform="translate(3652.398438 0)"/>
    <use xlink:href="#DejaVuSans-68" transform="translate(3712.701172 0)"/>
    <use xlink:href="#DejaVuSans-61" transform="translate(3776.080078 0)"/>
    <use xlink:href="#DejaVuSans-6e" transform="translate(3837.359375 0)"/>
    <use xlink:href="#DejaVuSans-74" transform="translate(3900.738281 0)"/>
    <use xlink:href="#DejaVuSans-6f" transform="translate(3939.947266 0)"/>
    <use xlink:href="#DejaVuSans-6d" transform="translate(4001.128906 0)"/>
    <use xlink:href="#DejaVuSans-20" transform="translate(4098.541016 0)"/>
    <use xlink:href="#DejaVuSans-54" transform="translate(4130.328125 0)"/>
    <use xlink:href="#DejaVuSans-72" transform="translate(4176.662109 0)"/>
    <use xlink:href="#DejaVuSans-61" transform="translate(4217.775391 0)"/>
    <use xlink:href="#DejaVuSans-6e" transform="translate(4279.054688 0)"/>
    <use xlink:href="#DejaVuSans-73" transform="translate(4342.433594 0)"/>
    <use xlink:href="#DejaVuSans-66" transform="translate(4394.533203 0)"/>
    <use xlink:href="#DejaVuSans-65" transform="translate(4429.738281 0)"/>
    <use xlink:href="#DejaVuSans-72" transform="translate(4491.261719 0)"/>
   </g>
  </g>
 </g>
 <defs>
  <clipPath id="p9094a2d0f1">
   <rect x="47.6525" y="63.6" width="481.069011" height="367.267719"/>
  </clipPath>
  <clipPath id="p5b1bbd9a5f">
   <rect x="568.057994" y="63.6" width="481.069011" height="367.267719"/>
  </clipPath>
  <clipPath id="p2d614c68e7">
   <rect x="1088.463489" y="63.6" width="481.069011" height="367.267719"/>
  </clipPath>
 </defs>
 <defs>
  <pattern id="h4d2f75fc67" patternUnits="userSpaceOnUse" x="0" y="0" width="72" height="72">
   <rect x="0" y="0" width="73" height="73" fill="#6c757d"/>
   <path d="M -36 36 
L 36 -36 
M -30 42 
L 42 -30 
M -24 48 
L 48 -24 
M -18 54 
L 54 -18 
M -12 60 
L 60 -12 
M -6 66 
L 66 -6 
M 0 72 
L 72 0 
M 6 78 
L 78 6 
M 12 84 
L 84 12 
M 18 90 
L 90 18 
M 24 96 
L 96 24 
M 30 102 
L 102 30 
M 36 108 
L 108 36 
" style="fill: #ffffff; stroke: #ffffff; stroke-width: 1.0; stroke-linecap: butt; stroke-linejoin: miter"/>
  </pattern>
  <pattern id="h495b6e2379" patternUnits="userSpaceOnUse" x="0" y="0" width="72" height="72">
   <rect x="0" y="0" width="73" height="73" fill="#c0392b"/>
   <path d="M -36 36 
L 36 -36 
M -30 42 
L 42 -30 
M -24 48 
L 48 -24 
M -18 54 
L 54 -18 
M -12 60 
L 60 -12 
M -6 66 
L 66 -6 
M 0 72 
L 72 0 
M 6 78 
L 78 6 
M 12 84 
L 84 12 
M 18 90 
L 90 18 
M 24 96 
L 96 24 
M 30 102 
L 102 30 
M 36 108 
L 108 36 
" style="fill: #ffffff; stroke: #ffffff; stroke-width: 1.0; stroke-linecap: butt; stroke-linejoin: miter"/>
  </pattern>
  <pattern id="h3181344b19" patternUnits="userSpaceOnUse" x="0" y="0" width="72" height="72">
   <rect x="0" y="0" width="73" height="73" fill="#2d8e4e"/>
   <path d="M -36 36 
L 36 -36 
M -30 42 
L 42 -30 
M -24 48 
L 48 -24 
M -18 54 
L 54 -18 
M -12 60 
L 60 -12 
M -6 66 
L 66 -6 
M 0 72 
L 72 0 
M 6 78 
L 78 6 
M 12 84 
L 84 12 
M 18 90 
L 90 18 
M 24 96 
L 96 24 
M 30 102 
L 102 30 
M 36 108 
L 108 36 
" style="fill: #ffffff; stroke: #ffffff; stroke-width: 1.0; stroke-linecap: butt; stroke-linejoin: miter"/>
  </pattern>
 </defs>
</svg>
